<?xml version="1.0" standalone="no"?>
<!DOCTYPE svg PUBLIC "-//W3C//DTD SVG 20010904//EN"
 "http://www.w3.org/TR/2001/REC-SVG-20010904/DTD/svg10.dtd">
<svg version="1.0" xmlns="http://www.w3.org/2000/svg"
 width="540.000000pt" height="540.000000pt" viewBox="0 0 540.000000 540.000000"
 preserveAspectRatio="xMidYMid meet">
<metadata>
Created by potrace 1.14, written by Peter Selinger 2001-2017
</metadata>
<g transform="translate(0.000000,540.000000) scale(0.100000,-0.100000)"
fill="#000000" stroke="none">
<path d="M40 5387 c0 -8 11 -139 25 -293 14 -153 31 -360 40 -459 8 -99 21
-260 30 -358 11 -127 13 -183 5 -192 -7 -9 -6 -16 5 -25 17 -14 21 -100 5
-100 -5 0 -10 -4 -10 -10 0 -5 6 -10 14 -10 10 0 15 -26 20 -97 4 -54 9 -129
13 -167 l6 -68 -29 5 c-16 3 -59 9 -96 12 -58 6 -68 4 -68 -9 0 -10 9 -16 24
-16 13 0 32 -3 42 -7 14 -5 11 -9 -17 -19 -27 -10 -29 -13 -11 -13 12 -1 22
-5 22 -10 0 -5 -10 -11 -22 -13 -13 -2 -23 -10 -23 -18 0 -8 10 -16 22 -18 13
-2 23 -10 23 -18 0 -8 4 -13 9 -9 5 3 12 1 16 -5 4 -6 -11 -10 -39 -10 -40 0
-46 -3 -46 -21 0 -16 5 -20 20 -16 11 3 20 1 20 -5 0 -6 10 -8 24 -4 15 4 28
0 38 -12 26 -30 77 -175 74 -211 -1 -20 3 -35 11 -38 7 -3 13 -15 13 -27 0
-13 -3 -17 -8 -9 -4 6 -20 15 -35 18 -21 6 -27 4 -27 -9 0 -14 -9 -17 -60 -18
-3 -1 -20 2 -38 5 l-32 7 0 -1560 0 -1560 309 0 c293 0 310 1 334 20 33 26 51
26 44 0 -3 -13 0 -20 9 -20 8 0 14 5 14 12 0 9 3 9 12 0 8 -8 59 -12 162 -12
101 0 146 4 136 10 -13 8 -13 10 2 10 9 0 19 -6 21 -12 5 -12 8 30 12 153 1
19 4 40 7 45 3 5 9 35 13 67 6 55 9 60 42 73 44 19 142 31 210 26 43 -3 58
-10 83 -35 30 -31 49 -59 69 -103 5 -11 27 -38 48 -60 43 -44 98 -121 108
-153 6 -20 13 -21 133 -21 100 1 134 4 159 18 l32 17 -53 1 c-123 3 -196 94
-196 245 0 39 -4 69 -10 69 -13 0 -9 -1 -82 16 -101 24 -238 33 -347 24 -137
-12 -175 -24 -220 -69 -21 -21 -52 -47 -70 -57 -17 -10 -31 -22 -31 -27 0 -4
5 -5 12 -1 7 5 8 3 3 -6 -5 -8 -1 -18 10 -27 14 -9 15 -13 4 -13 -22 1 -59 36
-59 58 0 11 16 52 35 91 19 39 35 76 35 83 0 12 19 53 85 181 37 70 64 178 58
225 -5 39 13 261 24 288 4 10 -4 14 -29 14 -46 0 -58 15 -58 75 0 48 2 51 43
77 l42 27 7 -42 c3 -23 4 -58 2 -77 -4 -31 -3 -32 6 -11 6 13 10 52 9 87 -2
72 6 88 27 60 13 -19 14 -19 14 5 0 14 6 31 12 37 10 10 10 15 1 20 -6 4 -16
56 -22 116 -14 142 -15 136 14 136 l25 0 0 -107 c1 -83 3 -104 11 -89 7 11 9
41 5 77 -6 50 -4 61 14 79 11 11 25 20 30 20 6 0 10 9 10 20 0 11 -5 20 -11
20 -7 0 -10 15 -7 39 2 27 0 37 -9 34 -6 -3 -13 -21 -15 -41 l-3 -37 -95 3
c-52 2 -92 1 -89 -3 4 -3 25 -6 48 -7 23 0 43 -3 45 -7 2 -3 7 -68 11 -143 6
-118 5 -138 -7 -138 -12 0 -16 21 -22 92 -3 51 -11 97 -17 103 -7 7 -9 5 -5
-5 2 -8 7 -60 10 -115 l5 -100 -37 -25 c-20 -14 -40 -26 -44 -28 -3 -2 -10 42
-13 98 -4 55 -10 98 -13 95 -3 -2 -4 -52 -3 -109 2 -111 -14 -154 -23 -64 -3
29 -12 118 -20 198 l-15 145 4 -110 c3 -60 8 -153 11 -206 6 -93 6 -97 -16
-109 -12 -6 -24 -9 -28 -6 -5 6 -30 281 -32 345 0 13 -3 22 -6 18 -3 -3 -1
-92 6 -198 10 -159 9 -193 -2 -200 -15 -10 -47 -2 -69 17 -23 20 -30 162 -14
274 6 39 1 57 -29 123 -19 42 -32 77 -28 77 5 0 7 32 7 71 -1 39 2 72 6 75 4
2 28 7 53 10 l46 7 0 -42 c0 -25 4 -40 10 -36 5 3 7 19 3 35 -5 28 -4 30 26
30 26 0 31 -4 31 -24 0 -14 5 -28 10 -31 6 -4 10 7 10 24 0 35 19 42 27 11 6
-24 23 -27 23 -4 0 14 7 15 41 10 22 -4 43 -7 47 -7 32 -5 62 3 62 16 0 26 37
17 44 -10 4 -14 12 -25 20 -25 24 0 27 14 4 27 l-23 12 23 1 c12 0 22 5 22 10
0 6 -6 10 -14 10 -8 0 -18 5 -21 11 -5 7 6 9 31 7 25 -2 38 -8 37 -15 -2 -7 4
-13 12 -13 8 0 15 5 15 10 0 6 7 10 15 10 29 0 38 40 31 148 -4 70 -2 118 6
144 10 33 9 41 -3 49 -11 7 -10 9 5 9 18 0 18 7 13 128 -3 70 -3 118 -1 107 3
-11 7 -30 10 -42 6 -31 20 -29 62 8 45 39 82 94 82 119 0 12 7 20 18 20 9 1
27 9 40 20 l22 19 -15 131 c-10 88 -12 137 -5 148 5 9 10 12 10 5 0 -6 10 -13
23 -15 20 -3 23 -10 30 -98 4 -52 5 -103 3 -112 -5 -22 -2 -22 52 -1 36 13 42
20 38 37 -2 12 -8 54 -12 94 l-7 74 29 -4 c27 -3 29 -7 37 -58 4 -30 6 -67 4
-82 -2 -16 1 -28 6 -28 6 0 8 30 4 80 -6 80 -6 80 18 80 31 0 34 -6 36 -74 1
-31 6 -56 10 -56 5 0 6 28 2 61 -5 51 -4 61 8 57 9 -3 15 -24 17 -62 2 -47 6
-57 18 -52 9 3 20 6 25 6 5 0 9 20 9 44 0 37 3 44 18 41 9 -2 27 -4 39 -4 23
-1 27 -19 8 -33 -14 -10 1 -22 20 -15 9 4 15 19 15 37 0 29 1 30 49 30 27 0
51 -5 53 -10 2 -6 20 -2 43 10 21 11 53 20 70 19 l30 -1 -31 -9 c-18 -5 -46
-26 -63 -46 -34 -40 -161 -231 -161 -241 0 -4 17 10 37 31 21 20 48 45 61 55
13 9 31 41 41 70 l18 52 36 -61 c34 -57 35 -63 22 -83 -14 -18 -53 -139 -69
-206 -3 -14 -10 -95 -16 -180 -10 -153 -6 -298 20 -695 6 -82 17 -251 25 -375
8 -124 19 -295 25 -380 6 -85 17 -256 25 -380 8 -124 17 -260 21 -302 l7 -78
38 0 c28 0 39 4 39 15 0 8 4 15 10 15 5 0 7 -7 4 -15 -5 -12 6 -15 65 -15 39
0 71 2 71 5 0 9 -75 42 -87 38 -7 -3 -13 0 -13 6 0 6 -11 17 -25 23 -18 8 -23
17 -20 32 4 20 24 304 28 413 1 28 5 47 8 41 3 -5 10 -9 15 -8 5 1 11 -9 14
-22 11 -44 130 -32 130 13 0 5 -5 8 -11 6 -18 -4 -38 92 -38 178 1 85 -6 115
-25 115 -18 0 -38 39 -31 61 4 10 12 19 19 19 38 0 65 83 60 186 -2 50 2 80
13 100 25 47 21 173 -7 239 -8 17 -14 33 -14 37 -1 3 -4 9 -8 13 -4 4 -4 13
-1 21 3 8 1 20 -5 27 -9 11 -27 125 -37 247 -14 153 -22 731 -10 749 7 13 134
2 182 -15 56 -20 178 -4 276 37 87 37 139 49 161 37 10 -6 16 -5 16 2 0 6 5 8
10 5 6 -4 8 -12 4 -18 -3 -7 1 -4 9 6 14 17 15 16 13 -7 0 -15 -5 -26 -9 -26
-5 0 -6 -4 -3 -9 3 -4 -12 -66 -33 -137 -80 -264 -157 -561 -149 -569 2 -2 21
64 42 148 44 173 102 370 148 502 31 90 46 122 35 75 -6 -24 -5 -24 8 -5 23
32 48 55 54 49 3 -3 1 -8 -4 -12 -6 -4 -11 -14 -12 -22 0 -8 -20 -71 -42 -139
-23 -68 -41 -128 -41 -133 0 -4 8 -8 19 -8 12 0 20 9 24 28 11 55 89 262 97
257 5 -3 6 5 2 17 -4 16 -2 19 8 13 10 -6 12 -4 7 8 -3 10 -3 17 2 17 18 0 18
-15 0 -67 -10 -31 -19 -58 -19 -61 0 -2 15 -1 34 2 20 4 37 2 41 -4 12 -19 33
-10 43 19 10 27 9 30 -14 33 -14 2 -23 6 -22 10 2 4 -6 14 -17 23 l-20 17 20
-8 c11 -3 28 -6 38 -6 9 0 15 -3 12 -9 -4 -5 0 -9 8 -9 12 0 27 19 27 35 0 2
-19 7 -42 11 -24 4 -35 9 -25 12 9 2 17 8 17 13 0 5 5 9 11 9 5 0 7 -6 3 -12
-6 -10 -5 -10 7 -1 12 9 18 10 27 1 8 -8 13 -7 18 6 4 11 1 22 -7 28 -11 7 -9
9 8 5 18 -4 21 -1 18 24 -2 16 0 29 5 29 20 0 9 43 -18 69 -15 16 -26 34 -24
41 3 9 0 10 -9 4 -26 -17 -83 -33 -93 -27 -6 3 -8 3 -4 -2 4 -4 -9 -20 -30
-34 -29 -21 -51 -27 -102 -30 -35 -1 -67 -4 -71 -7 -29 -18 -335 -59 -425 -57
-80 1 -234 91 -354 207 -52 50 -113 82 -170 88 -17 2 -25 9 -26 23 -3 46 -15
61 -57 71 -31 7 -45 17 -59 42 -10 18 -15 39 -11 45 13 21 27 140 27 242 1 74
-4 111 -16 143 -22 53 -36 182 -19 182 7 0 11 -21 11 -57 0 -32 5 -65 10 -73
7 -10 8 2 4 41 -6 52 -5 56 17 62 27 7 39 1 39 -19 0 -8 5 -14 10 -14 7 0 8
18 3 53 -13 88 -8 296 10 357 9 30 19 80 23 110 8 67 16 88 43 119 12 13 21
31 21 39 0 8 10 27 23 42 12 15 33 41 46 58 27 34 41 33 42 -1 0 -22 0 -22 10
1 5 15 15 22 26 20 24 -5 21 -41 -8 -102 -24 -52 -21 -60 31 -72 42 -9 69 -26
64 -39 -3 -7 -29 -21 -57 -31 -28 -11 -50 -23 -48 -28 1 -5 -13 -16 -31 -24
-33 -15 -33 -15 -8 -21 20 -6 25 -14 27 -41 1 -19 -4 -42 -11 -50 -21 -24 -86
-158 -86 -176 0 -14 6 -15 33 -9 17 5 54 9 80 11 48 2 48 2 30 -18 -10 -11
-31 -27 -46 -35 -43 -22 -29 -41 48 -69 125 -45 223 -19 335 90 69 68 70 68
95 52 14 -9 25 -24 25 -34 0 -10 11 -33 25 -52 14 -19 25 -43 25 -54 0 -12 7
-30 15 -40 8 -10 12 -23 9 -27 -3 -5 1 -9 8 -9 33 1 224 31 262 42 22 6 47 10
55 9 7 -1 10 2 7 7 -3 5 18 13 47 17 28 5 54 9 57 9 20 4 101 75 106 93 9 32
24 41 66 36 36 -5 39 -8 55 -59 17 -55 42 -71 60 -40 11 18 47 36 75 36 23 0
23 -1 24 -128 0 -130 16 -235 39 -262 7 -8 18 -39 26 -67 7 -29 16 -53 19 -53
4 0 10 -28 14 -62 5 -47 12 -68 31 -88 14 -14 25 -31 25 -37 0 -18 17 -24 45
-17 20 5 26 14 31 45 10 61 24 46 24 -26 0 -64 -1 -65 -21 -54 -17 9 -20 8
-13 -3 16 -25 12 -36 -18 -49 -19 -8 -36 -25 -45 -46 -12 -30 -12 -36 2 -49
16 -16 12 -55 -6 -62 -14 -5 -11 -23 4 -21 28 3 37 -3 53 -36 18 -38 47 -60
68 -52 7 3 16 25 20 49 7 38 9 40 17 21 4 -13 10 -35 12 -49 3 -21 14 -31 58
-49 75 -30 138 -64 175 -91 27 -21 35 -22 68 -13 l38 10 -34 18 c-29 16 -33
24 -36 62 -2 24 -1 68 3 97 6 49 8 52 36 52 28 0 29 -2 28 -42 0 -24 -4 -67
-8 -96 -7 -47 -6 -52 10 -47 9 3 20 1 24 -5 3 -5 13 -10 21 -10 11 0 14 16 14
68 1 37 11 210 24 386 18 240 27 320 37 327 18 11 52 11 83 0 17 -7 26 -7 28
1 3 8 16 8 43 2 39 -9 40 -11 43 -59 4 -57 -5 -98 -18 -90 -6 3 -10 -5 -10
-19 0 -14 5 -26 10 -26 7 0 10 -29 8 -77 -2 -56 -7 -77 -15 -76 -9 2 -13 -11
-13 -42 0 -25 -4 -45 -9 -45 -20 0 -42 -32 -31 -44 11 -15 4 -132 -11 -156 -7
-12 -10 -11 -16 10 l-7 25 -6 -30 c-4 -25 -11 -31 -47 -38 -40 -8 -42 -9 -36
-37 3 -17 0 -36 -6 -44 -7 -8 -13 -38 -13 -68 -1 -29 -6 -56 -12 -60 -6 -4
-30 -8 -53 -8 -48 0 -52 -7 -22 -41 l20 -24 18 23 c13 18 23 22 44 17 21 -6
27 -13 27 -35 0 -28 -15 -40 -51 -40 -10 0 -19 -4 -19 -10 0 -5 7 -10 15 -10
8 0 15 -9 15 -20 0 -11 5 -20 10 -20 6 0 10 -7 10 -15 0 -11 11 -15 41 -15 49
0 50 -23 1 -28 -40 -4 -40 -7 -3 -136 16 -55 32 -116 36 -134 9 -42 20 -33 17
13 -2 32 0 35 24 35 l26 0 -4 -95 c-3 -85 -1 -95 15 -95 15 0 17 11 17 99 l0
99 33 12 c17 6 40 16 49 21 29 15 38 10 38 -20 0 -21 -6 -30 -22 -35 -19 -5
-21 -8 -8 -16 15 -9 13 -11 -12 -14 -22 -2 -19 -23 4 -30 23 -6 23 -7 3 -19
-26 -16 -36 -93 -11 -84 11 5 16 1 16 -13 0 -11 -4 -20 -10 -20 -5 0 -10 5
-10 11 0 5 -5 7 -10 4 -6 -4 -18 -1 -27 7 -12 9 -15 9 -9 1 7 -12 48 -33 151
-79 39 -17 39 -18 13 -22 -31 -4 -206 35 -225 51 -18 13 -17 -8 6 -139 11 -60
22 -131 26 -159 4 -27 22 -88 40 -135 18 -47 61 -164 95 -260 103 -291 182
-472 198 -456 3 3 10 1 17 -4 8 -7 12 -5 12 5 0 8 -4 12 -9 9 -4 -3 -8 0 -8 7
0 7 -3 9 -7 6 -7 -8 -33 38 -33 59 0 17 41 18 62 1 8 -6 20 -37 26 -67 7 -30
21 -88 32 -129 11 -41 20 -85 20 -98 0 -13 11 -50 25 -83 29 -70 30 -76 9 -84
-8 -3 -13 -2 -10 2 2 4 -190 7 -427 7 l-432 0 -98 -28 c-54 -15 -102 -27 -107
-27 -6 0 -10 36 -10 83 -1 45 -6 111 -13 147 -8 45 -9 80 -3 113 7 36 6 57 -3
80 -18 42 -20 75 -11 126 4 22 3 41 -1 41 -5 0 -9 9 -9 20 0 11 -4 20 -9 20
-5 0 -7 -87 -4 -200 3 -147 2 -200 -7 -200 -6 0 -10 -10 -9 -22 1 -13 -6 -41
-15 -63 -36 -80 -29 -122 23 -150 24 -12 29 -21 29 -49 0 -19 3 -40 7 -45 14
-23 -8 -50 -62 -77 -58 -30 -147 -103 -125 -104 6 0 12 -5 12 -11 0 -6 -6 -9
-13 -6 -10 4 -13 -2 -9 -19 4 -24 7 -25 74 -22 l70 3 34 85 c18 47 38 103 44
125 31 128 210 192 465 166 145 -15 239 -40 243 -65 3 -11 -1 -53 -8 -93 -10
-56 -17 -74 -32 -79 -12 -3 -17 -11 -14 -21 3 -8 6 -39 6 -69 l0 -54 55 0 c42
0 55 3 55 15 0 19 39 20 46 1 5 -12 50 -14 260 -15 l254 -1 0 28 c0 15 -11 59
-25 97 l-24 70 24 3 25 3 0 328 0 328 -92 7 c-51 4 -102 8 -113 9 -23 2 -31
39 -20 95 6 32 8 34 38 28 18 -3 62 -9 100 -12 37 -4 67 -11 67 -16 0 -5 4 -6
10 -3 25 16 7 33 -40 39 -46 6 -56 14 -50 41 1 6 5 37 8 69 6 47 11 60 25 62
22 3 36 14 19 14 -7 0 -12 8 -12 18 0 14 -2 15 -10 2 -8 -13 -10 -12 -10 3 0
15 7 18 33 15 29 -3 32 -6 32 -35 0 -18 3 -33 7 -33 5 0 8 43 8 95 0 92 -1 95
-22 96 l-23 0 23 11 c16 8 22 20 22 45 0 31 -2 33 -33 33 -29 0 -33 3 -35 30
-2 28 0 30 33 30 22 0 34 4 30 10 -3 6 -20 10 -36 10 -27 0 -30 3 -27 28 3 24
7 27 36 24 23 -1 32 2 32 13 0 10 -10 15 -29 15 -25 0 -30 5 -35 35 -4 19 -2
53 4 76 10 37 14 40 36 35 21 -6 24 -3 24 19 0 14 -4 25 -8 25 -5 0 -17 7 -28
16 -18 15 -18 15 9 11 l27 -4 -1 496 c0 273 -4 505 -9 516 -7 17 -9 17 -9 3
-1 -19 -18 -22 -70 -12 -26 6 -31 11 -31 36 l0 30 60 -4 60 -3 0 55 0 55 -51
-4 c-60 -4 -71 4 -63 47 6 31 8 32 60 32 68 0 71 15 3 16 -27 1 -52 4 -55 7
-10 10 19 482 30 489 6 4 26 8 44 8 26 0 32 4 32 21 0 17 -6 20 -32 19 -52 -3
-56 -1 -51 20 4 16 14 20 44 20 l39 0 0 81 0 80 -142 -6 c-89 -4 -138 -3 -130
3 7 5 15 18 16 28 2 14 12 20 39 22 32 3 37 0 37 -17 0 -12 5 -21 10 -21 6 0
10 9 10 19 0 17 10 20 80 27 60 5 80 10 80 21 0 12 -16 14 -92 9 -51 -3 -86
-3 -77 0 14 4 17 22 18 97 1 50 3 93 5 95 2 1 36 6 75 9 39 3 71 10 71 15 0 8
-58 5 -117 -8 -29 -6 -36 9 -28 56 l7 40 69 0 c43 0 69 4 69 11 0 6 -17 10
-42 8 -87 -5 -98 -2 -98 30 0 28 1 29 70 35 38 4 70 11 70 17 0 8 -33 7 -125
-5 -14 -1 -17 70 -8 194 l8 105 28 3 c29 3 29 3 23 -38 -7 -49 10 -61 49 -36
l25 17 0 405 c-1 292 -4 403 -12 398 -7 -5 -9 1 -4 20 l6 26 -89 0 c-81 0 -90
-2 -104 -22 -15 -22 -16 -22 -16 -3 -1 13 -8 21 -21 22 -11 1 -20 -2 -20 -8 0
-5 4 -9 9 -9 5 0 16 -12 23 -28 12 -23 12 -38 -2 -102 -13 -62 -19 -75 -36
-75 -16 0 -19 7 -19 50 -1 80 -7 181 -10 165 -2 -8 -9 -61 -15 -117 -7 -57
-17 -103 -22 -103 -6 0 -5 -6 2 -14 9 -12 30 -14 93 -11 123 7 73 -11 -85 -29
-168 -20 -165 -19 -150 -4 7 7 12 40 12 79 0 37 5 71 10 74 6 3 10 11 10 16 0
6 -5 7 -12 3 -8 -5 -9 9 -5 55 6 56 5 62 -11 59 -15 -3 -17 -17 -15 -140 1
-97 -2 -140 -10 -147 -15 -12 -165 -29 -192 -21 -14 3 -20 14 -20 33 -1 15 3
27 8 27 4 0 6 4 3 9 -3 4 1 17 9 27 9 12 14 43 15 80 0 50 4 64 23 82 13 12
33 22 44 22 12 0 24 7 27 16 5 13 -3 15 -46 12 -41 -2 -52 -7 -54 -21 -3 -21
-14 -36 -14 -19 0 20 -62 42 -119 41 -38 -1 -64 -8 -83 -22 -26 -19 -30 -45
-5 -30 7 4 6 -1 -2 -10 -12 -15 -12 -17 3 -11 26 10 42 -20 38 -71 -4 -43 -5
-44 -54 -61 -42 -14 -54 -14 -75 -3 -22 12 -24 19 -23 79 2 106 1 130 -10 130
-5 0 -10 -6 -10 -14 0 -9 -7 -12 -20 -9 -11 3 -20 9 -20 14 0 5 -18 9 -40 9
-22 0 -40 -4 -40 -9 0 -11 -31 -24 -39 -16 -3 3 1 10 9 15 13 8 12 10 -2 10
-11 0 -18 -8 -18 -19 0 -12 -16 -29 -44 -45 -42 -24 -76 -79 -76 -121 0 -7 -5
-17 -11 -21 -8 -5 -10 3 -5 27 4 19 8 62 9 97 2 43 7 66 17 72 11 7 -1 10 -37
10 -53 0 -53 0 -55 -32 -5 -108 -2 -196 7 -195 6 1 11 -31 13 -75 3 -76 2 -78
-20 -78 -18 0 -24 6 -24 23 -3 335 -4 357 -20 357 -14 0 -15 -7 -10 -44 4 -25
3 -47 -2 -50 -13 -8 -22 17 -22 59 l0 33 -71 0 c-69 0 -70 0 -53 -19 16 -17
16 -19 1 -19 -12 0 -17 -9 -17 -27 0 -43 -11 -73 -25 -73 -8 0 -17 -9 -20 -20
-12 -36 -25 -21 -25 29 0 40 3 50 20 54 15 4 20 14 20 42 0 36 0 36 -37 33
-33 -3 -38 -6 -41 -32 -2 -16 1 -33 7 -39 17 -17 14 -116 -4 -133 -13 -14 -15
-3 -15 95 0 67 -4 111 -10 111 -6 0 -10 -75 -10 -205 0 -227 -2 -232 -56 -167
-30 36 -32 44 -37 142 -4 58 -7 134 -8 170 -1 57 -2 61 -9 30 -5 -18 -15 -39
-23 -45 -8 -6 -20 -44 -27 -88 -7 -42 -15 -77 -17 -77 -2 0 -20 12 -39 28 -33
26 -34 29 -36 107 l-2 80 -3 -77 c-3 -60 -7 -78 -18 -78 -12 0 -15 18 -15 90
0 53 -4 90 -10 90 -6 0 -10 -33 -10 -80 0 -85 1 -84 -55 -80 -40 3 -44 12 -47
95 -1 58 -2 61 -5 20 -2 -27 -5 -60 -8 -72 l-5 -22 -38 21 c-20 12 -40 26 -43
31 -3 4 -10 7 -15 6 -35 -6 -44 2 -44 41 0 22 -4 40 -10 40 -5 0 -10 -18 -10
-40 0 -22 -2 -40 -5 -40 -3 0 -22 7 -42 15 -19 8 -46 15 -59 15 -19 0 -24 5
-25 28 l-1 27 -9 -26 c-9 -24 -45 -49 -69 -49 -6 0 -10 16 -10 35 l0 35 -265
0 c-160 -1 -265 -5 -265 -11 0 -5 -11 -9 -25 -9 -14 0 -25 5 -25 10 0 6 -4 10
-10 10 -5 0 -10 -7 -10 -15 0 -8 -5 -15 -10 -15 -6 0 -13 7 -16 15 -8 20 -20
19 -44 -5 -21 -21 -74 -27 -85 -10 -3 6 4 14 17 20 26 10 -138 7 -234 -5 -41
-6 -58 -4 -58 4 0 6 -7 11 -15 11 -8 0 -15 -7 -15 -15 0 -18 -46 -17 -62 2 -6
7 -20 13 -32 12 -21 0 -21 0 2 -9 27 -12 29 -24 2 -17 -11 3 -20 1 -20 -4 0
-5 -13 -9 -30 -9 -36 0 -42 26 -7 33 12 3 -25 5 -81 4 -57 -1 -106 -5 -108 -9
-8 -13 -72 -9 -77 5 -3 7 -6 5 -6 -5 -1 -22 -31 -24 -31 -3 0 8 -4 15 -10 15
-5 0 -7 -7 -4 -15 4 -10 0 -15 -12 -16 -11 0 -40 -4 -66 -8 -42 -7 -48 -6 -48
10 0 10 9 19 23 22 12 3 -12 4 -53 4 -41 -1 -79 -4 -85 -8 -5 -4 -29 -8 -52
-11 -32 -3 -43 0 -47 12 -3 12 -4 11 -5 -2 -1 -17 -8 -19 -68 -22 -12 -1 -17
5 -15 17 3 16 -5 18 -78 15 -45 -2 -84 -6 -86 -10 -3 -4 -16 -3 -30 2 -39 15
-44 13 -44 -22 0 -48 -10 -78 -26 -78 -8 0 -14 10 -14 24 0 44 -12 86 -26 86
-7 0 -18 -17 -24 -39 l-10 -38 -34 16 c-29 13 -34 20 -29 41 4 20 2 22 -6 10
-7 -10 -11 -11 -11 -2 0 15 -27 16 -32 1 -3 -9 -9 -9 -25 0 -12 6 -47 11 -77
11 -49 0 -56 -2 -56 -20 0 -11 4 -20 9 -20 5 0 11 -42 15 -92 8 -107 53 -598
61 -675 6 -48 4 -53 -13 -53 -17 0 -20 12 -30 128 -7 70 -24 262 -38 427 -15
165 -28 302 -30 304 -14 16 -10 -50 21 -405 19 -219 35 -413 35 -430 0 -30 -3
-32 -40 -36 -30 -3 -40 0 -40 11 0 7 -16 172 -34 365 -19 193 -38 384 -42 424
-5 51 -11 72 -20 72 -8 0 -14 -6 -14 -14 0 -8 18 -194 40 -415 22 -220 40
-412 40 -426 0 -33 -37 -36 -44 -2 -3 12 -17 162 -31 332 -41 480 -46 525 -61
525 -8 0 -14 -6 -14 -13z m343 -23 c29 -15 53 -27 54 -28 8 -6 64 -769 57
-775 -5 -5 -34 -11 -65 -14 l-55 -5 -23 241 c-54 589 -55 607 -30 607 5 0 33
-12 62 -26z m461 11 c6 -17 -26 -28 -70 -23 -37 4 -42 25 -7 31 56 8 71 7 77
-8z m326 -5 c0 -16 -7 -20 -35 -20 -40 0 -50 26 -12 33 42 8 47 7 47 -13z
m418 3 c-4 -22 -22 -20 -26 1 -2 10 3 16 13 16 10 0 15 -7 13 -17z m1182 -2
c0 -11 -3 -27 -6 -36 -13 -33 -133 -62 -135 -32 0 10 -2 10 -6 0 -8 -22 -40
-14 -62 13 -34 43 -28 50 62 61 135 16 147 16 147 -6z m27 -33 c-2 -13 -4 -5
-4 17 -1 22 1 32 4 23 2 -10 2 -28 0 -40z m1963 43 c0 -6 -4 -13 -10 -16 -5
-3 -10 1 -10 9 0 9 5 16 10 16 6 0 10 -4 10 -9z m-4177 -70 c-1 -2 -9 -1 -17
2 -13 5 -13 11 -3 39 l12 33 5 -35 c3 -19 5 -37 3 -39z m932 58 c10 -15 3 -18
-46 -23 -24 -2 -56 -7 -70 -11 -19 -5 -28 -2 -32 9 -8 21 6 28 48 25 19 -2 37
0 41 4 11 11 52 8 59 -4z m404 -3 c-11 -10 -109 -17 -109 -7 0 5 24 11 53 13
51 3 64 2 56 -6z m48 8 c-3 -3 -12 -4 -19 -1 -8 3 -5 6 6 6 11 1 17 -2 13 -5z
m3283 -33 c0 -59 -11 -101 -26 -101 -17 0 -20 91 -4 121 17 31 30 22 30 -20z
m-4537 17 c16 -12 15 -16 -1 -61 -9 -26 -21 -46 -27 -44 -11 4 -27 86 -20 105
2 6 10 12 18 12 7 0 21 -6 30 -12z m357 -2 c0 -13 -41 -26 -81 -26 -24 0 -25
27 -1 33 39 10 82 7 82 -7z m-110 -15 c0 -15 -9 -20 -40 -23 -33 -3 -40 0 -40
14 0 15 11 20 68 27 6 0 12 -8 12 -18z m350 -1 c0 -11 -7 -20 -15 -20 -8 0
-15 9 -15 20 0 11 7 20 15 20 8 0 15 -9 15 -20z m45 9 c10 -15 -1 -23 -20 -15
-9 3 -13 10 -10 16 8 13 22 13 30 -1z m381 0 c11 -18 -17 -28 -76 -26 -71 3
-71 20 0 28 30 3 58 6 62 7 4 1 10 -3 14 -9z m-466 -13 c0 -12 -40 -26 -76
-26 -17 0 -18 27 -1 33 27 11 77 7 77 -7z m-420 -11 c0 -19 -11 -19 -36 0 -18
14 -18 14 9 15 17 0 27 -5 27 -15z m320 1 c0 -18 -49 -31 -64 -16 -8 8 -7 13
4 20 23 15 60 12 60 -4z m359 -12 c-15 -19 -69 -18 -69 0 0 15 43 25 68 18 9
-3 10 -8 1 -18z m61 5 c0 -5 -7 -9 -15 -9 -8 0 -15 7 -15 15 0 9 6 12 15 9 8
-4 15 -10 15 -15z m-996 -113 c6 -61 31 -387 43 -547 l6 -86 -58 -7 c-32 -3
-59 -5 -61 -3 -2 2 -15 147 -28 323 -14 175 -28 347 -31 382 l-7 63 66 -33 65
-32 5 -60z m194 113 c17 -11 18 -14 3 -55 -19 -52 -41 -58 -41 -11 0 17 -3 42
-6 55 -7 25 13 30 44 11z m288 -18 c-11 -17 -96 -14 -96 3 0 10 14 16 43 18
45 3 63 -4 53 -21z m369 8 c0 -9 -13 -15 -37 -17 -28 -2 -38 1 -38 12 0 8 12
16 28 19 37 5 47 3 47 -14z m442 7 c-18 -18 -69 -25 -74 -9 -4 11 19 19 65 22
20 1 21 -1 9 -13z m413 -6 c0 -15 -7 -20 -25 -20 -29 0 -35 26 -7 33 30 8 32
7 32 -13z m60 5 c0 -6 -7 -12 -15 -12 -8 0 -15 6 -15 12 0 6 7 12 15 12 8 0
15 -6 15 -12z m48 4 c-2 -6 -8 -10 -13 -10 -5 0 -11 4 -13 10 -2 6 4 11 13 11
9 0 15 -5 13 -11z m-1048 -13 c0 -16 -18 -31 -27 -22 -8 8 5 36 17 36 5 0 10
-6 10 -14z m418 -5 c3 -8 -3 -12 -14 -10 -11 1 -27 -1 -37 -6 -19 -8 -67 1
-67 13 0 5 19 9 42 11 23 1 45 4 47 7 8 7 24 -1 29 -15z m452 4 c0 -8 -4 -15
-10 -15 -5 0 -10 7 -10 15 0 8 5 15 10 15 6 0 10 -7 10 -15z m-1262 -7 c-8
-23 -88 -30 -88 -8 0 10 25 17 63 19 19 1 27 -3 25 -11z m302 -8 c0 -17 -7
-20 -40 -20 -50 0 -57 27 -7 33 17 2 35 5 40 5 4 1 7 -7 7 -18z m40 5 c0 -8
-7 -15 -15 -15 -8 0 -15 7 -15 15 0 8 7 15 15 15 8 0 15 -7 15 -15z m870 -1
c0 -13 -10 -15 -55 -12 -30 1 -55 0 -55 -4 0 -5 -4 -8 -10 -8 -5 0 -10 6 -10
14 0 16 23 23 88 25 32 1 42 -3 42 -15z m-1533 -16 c-3 -8 -6 -5 -6 6 -1 11 2
17 5 13 3 -3 4 -12 1 -19z m93 -19 c0 -28 -13 -39 -25 -19 -8 13 5 61 16 54 5
-3 9 -18 9 -35z m860 26 c0 -8 -9 -15 -20 -15 -20 0 -26 11 -13 23 12 13 33 7
33 -8z m38 -3 c2 -7 -3 -12 -12 -12 -9 0 -16 7 -16 16 0 17 22 14 28 -4z m807
7 c9 -13 7 -15 -32 -22 -25 -5 -33 -3 -33 7 0 24 53 36 65 15z m-1589 -14 c8
-20 -15 -85 -29 -85 -7 0 -18 4 -26 9 -23 14 3 91 30 91 11 0 22 -7 25 -15z
m322 3 c-7 -20 -68 -23 -68 -4 0 12 10 16 36 16 24 0 34 -4 32 -12z m357 -3
c0 -5 -17 -11 -37 -13 -30 -3 -38 0 -38 13 0 13 8 16 38 13 20 -2 37 -7 37
-13z m455 4 c0 -10 -2 -10 -40 -14 -14 -1 -51 -5 -84 -10 -48 -6 -58 -5 -54 6
7 22 178 39 178 18z m370 -4 c0 -6 -7 -12 -15 -12 -8 0 -15 6 -15 12 0 6 7 12
15 12 8 0 15 -6 15 -12z m1170 5 c0 -5 -7 -10 -16 -10 -8 0 -12 5 -9 10 3 6
10 10 16 10 5 0 9 -4 9 -10z m-2450 -14 c0 -13 -41 -26 -81 -26 -21 0 -26 26
-6 33 28 12 87 7 87 -7z m370 -1 c0 -11 -11 -15 -40 -15 -38 0 -49 8 -33 23 3
4 21 7 40 7 23 0 33 -5 33 -15z m790 -6 c0 -5 -7 -9 -15 -9 -15 0 -20 12 -9
23 8 8 24 -1 24 -14z m58 9 c-7 -20 -48 -23 -48 -4 0 11 9 16 26 16 16 0 24
-5 22 -12z m-1328 -13 c0 -9 -6 -12 -15 -9 -8 4 -15 10 -15 15 0 5 7 9 15 9 8
0 15 -7 15 -15z m340 -1 c0 -10 -6 -14 -14 -11 -8 3 -16 2 -18 -2 -2 -4 -22
-11 -46 -14 -37 -4 -43 -3 -40 11 2 12 18 19 53 23 28 3 53 7 58 7 4 1 7 -5 7
-14z m50 1 c0 -8 -7 -15 -15 -15 -8 0 -15 7 -15 15 0 8 7 15 15 15 8 0 15 -7
15 -15z m418 3 c-4 -11 -20 -13 -58 -9 -5 1 -10 6 -10 11 0 6 16 10 36 10 24
0 34 -4 32 -12z m402 -2 c0 -15 -92 -28 -98 -14 -2 5 -8 6 -13 2 -5 -3 -9 -1
-9 5 0 9 31 16 93 19 17 1 27 -3 27 -12z m-1525 -30 c2 -11 13 -138 25 -281
11 -143 24 -284 27 -312 6 -52 5 -53 -20 -53 -23 0 -26 5 -31 48 -8 65 -34
383 -42 519 -7 111 -7 112 15 106 12 -3 23 -15 26 -27z m268 21 c16 -11 16
-16 4 -52 -20 -58 -35 -55 -39 9 -3 58 4 67 35 43z m752 6 c29 -5 29 -6 8 -14
-27 -10 -113 -9 -113 1 0 18 50 25 105 13z m785 -3 c0 -11 -29 -19 -85 -23
-53 -3 -62 16 -10 21 22 1 45 5 50 7 20 7 45 5 45 -5z m-1280 -14 c0 -8 -14
-15 -35 -18 -33 -4 -46 8 -28 25 12 13 63 7 63 -7z m360 0 c0 -8 -14 -15 -35
-18 -20 -2 -35 0 -35 7 0 6 -3 6 -8 -1 -9 -15 -82 -23 -83 -9 0 5 -3 4 -6 -2
-7 -18 -43 -16 -43 1 0 10 17 16 58 21 31 3 66 7 77 9 51 8 75 5 75 -8z m395
3 c10 -15 6 -16 -57 -24 -49 -6 -58 -5 -58 8 0 11 12 17 43 20 23 2 47 4 54 5
6 1 15 -3 18 -9z m55 -4 c0 -8 -9 -15 -20 -15 -11 0 -20 7 -20 15 0 8 9 15 20
15 11 0 20 -7 20 -15z m-910 -9 c0 -22 -37 -29 -61 -12 -23 15 -21 16 49 25 6
0 12 -5 12 -13z m1160 -7 c0 -5 -4 -9 -10 -9 -5 0 -10 7 -10 16 0 8 5 12 10 9
6 -3 10 -10 10 -16z m50 11 c0 -5 -9 -10 -20 -10 -11 0 -20 5 -20 10 0 6 9 10
20 10 11 0 20 -4 20 -10z m-1581 -11 c19 -7 33 -20 36 -32 2 -12 13 -150 22
-307 l18 -285 -24 -7 c-14 -4 -27 -6 -29 -3 -2 2 -15 124 -27 272 -13 147 -26
292 -29 321 -4 28 -5 52 -3 52 2 0 18 -5 36 -11z m271 -50 c0 -54 1 -53 -34
-38 -21 10 -23 15 -15 41 10 36 28 60 40 52 5 -3 9 -27 9 -55z m340 40 c0 -5
-7 -9 -15 -9 -15 0 -20 12 -9 23 8 8 24 -1 24 -14z m418 3 c3 -10 -4 -13 -24
-11 -16 2 -34 0 -40 -4 -6 -3 -27 -6 -46 -5 -19 1 -40 -2 -46 -6 -7 -4 -12 -1
-12 8 0 9 1 16 3 16 1 1 27 3 57 6 30 3 57 8 60 10 9 9 44 -1 48 -14z m42 8
c0 -5 -2 -10 -4 -10 -3 0 -8 5 -11 10 -3 6 -1 10 4 10 6 0 11 -4 11 -10z m410
1 c0 -11 -36 -21 -77 -21 -37 0 -45 16 -10 23 41 8 87 7 87 -2z m-910 -16 c0
-10 -11 -16 -30 -16 -16 -1 -35 -2 -42 -3 -19 -2 -20 22 -1 27 40 10 73 7 73
-8z m1125 -4 c-7 -13 -85 -15 -85 -3 0 5 16 9 36 10 20 1 39 4 42 7 9 8 15 -3
7 -14z m-1400 -13 c-5 -17 -4 -19 4 -9 8 12 15 13 35 3 23 -10 24 -14 14 -44
-15 -45 -23 -52 -44 -40 -14 8 -19 24 -21 61 -1 28 3 51 8 51 6 0 8 -10 4 -22z
m175 8 c0 -7 -12 -16 -27 -19 -33 -7 -55 9 -33 23 23 14 60 12 60 -4z m360 0
c0 -8 -14 -15 -35 -18 -37 -4 -51 16 -17 25 34 9 52 7 52 -7z m455 4 c-5 -7
-58 -16 -144 -23 -13 -1 -26 3 -28 10 -4 12 20 16 130 20 26 1 45 -2 42 -7z
m295 -5 c0 -8 -7 -15 -15 -15 -26 0 -18 20 13 29 1 1 2 -6 2 -14z m1440 5 c0
-5 -2 -10 -4 -10 -3 0 -8 5 -11 10 -3 6 -1 10 4 10 6 0 11 -4 11 -10z m30 0
c0 -5 -5 -10 -11 -10 -5 0 -7 5 -4 10 3 6 8 10 11 10 2 0 4 -4 4 -10z m-2895
-9 c3 -5 1 -12 -5 -16 -5 -3 -10 1 -10 9 0 18 6 21 15 7z m595 -6 c0 -11 -11
-15 -40 -15 -62 0 -50 27 13 29 18 1 27 -4 27 -14z m780 5 c0 -5 -4 -10 -10
-10 -5 0 -10 5 -10 10 0 6 5 10 10 10 6 0 10 -4 10 -10z m1610 -2 c0 -5 -9 -8
-20 -8 -14 0 -20 -7 -20 -22 0 -27 -9 -18 -16 15 -4 24 -1 26 26 24 16 -1 30
-5 30 -9z m-3031 -23 l49 -24 7 -83 c4 -46 12 -167 18 -269 l12 -187 -49 -6
c-28 -3 -51 -4 -53 -2 -2 2 -10 95 -18 207 -8 112 -17 246 -21 297 -4 50 -4
92 0 92 4 0 29 -11 55 -25z m551 10 c0 -8 -7 -15 -15 -15 -8 0 -15 7 -15 15 0
8 7 15 15 15 8 0 15 -7 15 -15z m415 4 c5 -8 -84 -23 -92 -15 -3 2 -2 9 2 15
7 12 83 12 90 0z m405 2 c0 -9 -99 -25 -107 -17 -3 2 -2 9 2 15 7 13 105 15
105 2z m1750 -7 c0 -2 -13 -4 -30 -4 -16 0 -30 4 -30 8 0 5 14 7 30 4 17 -2
30 -6 30 -8z m-2660 -9 c0 -9 -9 -15 -24 -15 -13 0 -31 -3 -40 -6 -10 -4 -16
-1 -16 9 0 16 18 24 58 26 13 1 22 -5 22 -14z m40 5 c0 -5 -7 -10 -15 -10 -8
0 -15 5 -15 10 0 6 7 10 15 10 8 0 15 -4 15 -10z m290 -11 c0 -5 -9 -9 -20 -9
-22 0 -27 16 -7 23 15 5 27 -1 27 -14z m70 11 c0 -5 -3 -10 -7 -10 -5 0 -18
-3 -30 -6 -17 -5 -23 -2 -23 10 0 11 9 16 30 16 17 0 30 -4 30 -10z m-495 -11
c11 -16 -2 -22 -32 -15 -21 6 -24 9 -12 17 19 12 36 11 44 -2z m357 5 c15 -9
-12 -24 -44 -24 -25 0 -35 9 -24 21 8 7 57 9 68 3z m748 -4 c0 -5 -7 -10 -15
-10 -8 0 -15 5 -15 10 0 6 7 10 15 10 8 0 15 -4 15 -10z m1795 0 c-3 -5 -12
-7 -20 -3 -21 7 -19 13 6 13 11 0 18 -4 14 -10z m70 1 c5 0 4 -6 -3 -13 -7 -7
-12 -30 -12 -52 0 -30 -3 -37 -10 -26 -5 8 -10 29 -10 46 0 16 -5 35 -11 41
-10 10 -1 11 46 4z m90 -1 c3 -5 -1 -10 -9 -10 -9 0 -16 5 -16 10 0 6 4 10 9
10 6 0 13 -4 16 -10z m-3151 -53 l7 -47 -25 11 c-13 6 -23 17 -21 23 17 49 26
68 29 65 2 -2 7 -25 10 -52z m366 44 c0 -11 -25 -21 -56 -21 -23 0 -31 10 -17
23 10 10 73 8 73 -2z m330 -5 c0 -14 -70 -32 -95 -25 -6 2 -21 -1 -34 -5 -14
-5 -27 -4 -34 3 -16 16 -7 20 69 27 38 3 71 8 73 10 9 9 21 3 21 -10z m410 -1
c0 -11 -12 -15 -47 -16 -27 0 -63 -2 -81 -5 -24 -3 -32 0 -30 8 3 7 24 14 48
16 25 2 46 5 49 8 2 2 17 4 33 4 18 0 28 -5 28 -15z m-884 -22 c-10 -10 -19 5
-10 18 6 11 8 11 12 0 2 -7 1 -15 -2 -18z m51 12 c-4 -8 -2 -17 3 -20 16 -10
11 -25 -8 -25 -14 0 -19 8 -20 30 0 21 4 30 15 30 9 0 13 -6 10 -15z m-226
-10 c5 3 18 1 28 -5 16 -8 19 -15 12 -33 -5 -12 -12 -30 -15 -40 -5 -14 -10
-16 -26 -7 -16 8 -19 20 -18 56 2 25 4 41 6 35 2 -6 8 -9 13 -6z m149 6 c0
-11 -25 -21 -55 -21 -27 0 -42 16 -23 23 22 9 78 7 78 -2z m320 -6 c0 -8 -9
-15 -20 -15 -11 0 -20 7 -20 15 0 8 9 15 20 15 11 0 20 -7 20 -15z m327 -11
c-2 -2 -12 -1 -22 3 -18 6 -18 7 1 13 17 7 33 -5 21 -16z m63 11 c0 -9 -9 -15
-25 -15 -24 0 -32 10 -18 23 12 13 43 7 43 -8z m2421 -51 c6 -8 3 -13 -10 -17
-26 -6 -31 0 -31 39 0 39 24 52 28 15 2 -14 8 -31 13 -37z m-3476 33 l40 -23
12 -199 c17 -302 20 -272 -27 -277 -22 -2 -40 0 -40 5 0 17 -30 425 -34 470
-3 26 -2 47 2 47 4 0 25 -11 47 -23z m603 11 c-3 -7 -21 -13 -41 -14 -20 0
-40 -3 -44 -7 -13 -14 -73 -8 -73 7 0 15 18 19 108 24 40 2 53 -1 50 -10z
m326 6 c26 -10 18 -24 -14 -24 -30 0 -41 14 -17 23 6 3 13 6 14 6 1 1 8 -2 17
-5z m-84 -17 c0 -9 -15 -14 -45 -15 -54 -3 -61 15 -7 21 20 2 40 4 45 5 4 1 7
-4 7 -11z m420 4 c0 -10 -48 -21 -91 -21 -34 0 -39 17 -6 23 41 8 97 7 97 -2z
m30 -1 c0 -5 -4 -10 -10 -10 -5 0 -10 5 -10 10 0 6 5 10 10 10 6 0 10 -4 10
-10z m50 6 c0 -2 -7 -6 -15 -10 -8 -3 -15 -1 -15 4 0 6 7 10 15 10 8 0 15 -2
15 -4z m-1003 -32 c-2 -2 -12 -1 -22 3 -18 6 -18 7 1 13 17 7 33 -5 21 -16z
m33 16 c0 -5 -4 -10 -10 -10 -5 0 -10 5 -10 10 0 6 5 10 10 10 6 0 10 -4 10
-10z m755 0 c-3 -5 -10 -10 -16 -10 -5 0 -9 5 -9 10 0 6 7 10 16 10 8 0 12 -4
9 -10z m1832 -12 c-3 -8 -6 -5 -6 6 -1 11 2 17 5 13 3 -3 4 -12 1 -19z m-2292
2 c3 -5 -1 -10 -9 -10 -9 0 -16 -5 -16 -11 0 -5 4 -8 9 -4 5 3 12 1 16 -5 3
-5 -3 -10 -14 -10 -16 0 -21 6 -21 25 0 25 23 35 35 15z m75 0 c0 -5 -13 -10
-30 -10 -16 0 -30 5 -30 10 0 6 14 10 30 10 17 0 30 -4 30 -10z m310 0 c0 -5
-9 -10 -19 -10 -11 0 -23 5 -26 10 -4 6 5 10 19 10 14 0 26 -4 26 -10z m3138
-22 l-3 -33 60 2 c69 3 44 -9 -43 -21 l-53 -7 5 37 c7 41 13 54 27 54 5 0 8
-15 7 -32z m-3903 13 c3 -6 -1 -25 -9 -43 -8 -19 -15 -26 -15 -16 -1 9 -5 20
-11 23 -6 4 -7 -1 -3 -11 4 -11 2 -15 -6 -13 -7 3 -12 8 -12 12 1 4 1 14 1 23
0 8 5 12 10 9 6 -3 10 1 10 9 0 17 25 22 35 7z m315 -1 c0 -5 -16 -10 -35 -10
-19 0 -35 5 -35 10 0 6 16 10 35 10 19 0 35 -4 35 -10z m370 0 c-20 -13 -93
-13 -85 0 3 6 27 10 53 10 34 0 43 -3 32 -10z m290 0 c3 -1 -4 -5 -15 -10 -27
-12 -105 -12 -105 -1 0 12 89 20 120 11z m30 0 c0 -5 -4 -10 -10 -10 -5 0 -10
5 -10 10 0 6 5 10 10 10 6 0 10 -4 10 -10z m50 6 c0 -11 -19 -15 -25 -6 -3 5
1 10 9 10 9 0 16 -2 16 -4z m1400 -26 c0 -10 -7 -20 -15 -24 -11 -4 -15 2 -15
24 0 22 4 28 15 24 8 -4 15 -14 15 -24z m1385 -10 c1 -22 -3 -40 -8 -40 -4 0
-6 -3 -3 -8 2 -4 0 -59 -5 -122 -5 -63 -13 -176 -18 -250 -5 -74 -13 -178 -16
-232 -7 -89 -6 -96 11 -101 16 -4 15 -5 -3 -6 -22 -1 -23 -5 -23 -75 0 -51 -4
-77 -14 -85 -10 -8 -16 -9 -21 -1 -3 5 -22 10 -41 10 l-34 0 0 65 0 65 48 2
47 2 -47 3 -47 4 5 107 c2 59 9 198 14 310 6 112 10 223 10 248 0 43 1 44 33
46 l32 1 -32 4 c-30 4 -33 8 -33 37 0 46 16 56 85 56 l60 0 0 -40z m-4022 9
c23 -12 43 -22 44 -23 1 -1 7 -91 14 -200 13 -220 14 -216 -52 -216 l-35 0
-12 188 c-13 204 -15 272 -7 272 3 0 25 -10 48 -21z m272 11 c3 -5 1 -10 -4
-10 -6 0 -11 5 -11 10 0 6 2 10 4 10 3 0 8 -4 11 -10z m55 0 c0 -5 -9 -10 -20
-10 -11 0 -20 5 -20 10 0 6 9 10 20 10 11 0 20 -4 20 -10z m85 0 c-3 -5 -22
-10 -41 -10 -19 0 -34 5 -34 10 0 6 18 10 41 10 24 0 38 -4 34 -10z m295 0 c0
-5 -14 -10 -31 -10 -17 0 -28 4 -24 10 3 6 17 10 31 10 13 0 24 -4 24 -10z
m30 0 c0 -5 -4 -10 -10 -10 -5 0 -10 5 -10 10 0 6 5 10 10 10 6 0 10 -4 10
-10z m3120 -16 c0 -48 -16 -64 -68 -65 -26 0 -56 -4 -67 -9 -13 -6 7 -7 55 -3
l75 5 -7 -308 c-4 -170 -9 -327 -12 -349 -3 -22 -5 -70 -5 -107 0 -65 -1 -68
-24 -68 -41 0 -192 22 -199 29 -7 6 7 308 18 399 4 34 9 42 27 43 22 2 22 2 0
6 -27 5 -29 24 -12 206 8 89 15 125 27 135 9 7 11 12 4 12 -7 0 -12 16 -12 40
0 45 5 48 105 53 33 2 68 4 78 5 12 1 17 -5 17 -24z m-3630 6 c17 -9 18 -13 5
-43 -7 -17 -18 -32 -24 -31 -27 2 -31 5 -31 18 0 20 18 66 25 66 4 0 15 -5 25
-10z m405 0 c-3 -5 -17 -10 -31 -10 -13 0 -24 5 -24 10 0 6 14 10 31 10 17 0
28 -4 24 -10z m269 -11 c-28 -11 -130 -11 -118 0 10 11 88 18 118 12 20 -4 20
-4 0 -12z m126 17 c0 -2 -7 -6 -15 -10 -8 -3 -15 -1 -15 4 0 6 7 10 15 10 8 0
15 -2 15 -4z m-530 -16 c0 -5 -16 -10 -35 -10 -19 0 -35 5 -35 10 0 6 16 10
35 10 19 0 35 -4 35 -10z m700 0 c0 -5 -7 -10 -15 -10 -8 0 -15 5 -15 10 0 6
7 10 15 10 8 0 15 -4 15 -10z m40 6 c0 -3 -4 -8 -10 -11 -5 -3 -10 -1 -10 4 0
6 5 11 10 11 6 0 10 -2 10 -4z m-910 -16 c0 -5 -4 -10 -10 -10 -5 0 -10 5 -10
10 0 6 5 10 10 10 6 0 10 -4 10 -10z m88 -2 c-2 -8 13 -11 47 -9 71 4 45 -15
-32 -23 -59 -5 -99 8 -51 17 17 3 14 5 -9 6 -47 2 -41 21 7 21 25 0 39 -4 38
-12z m292 2 c0 -5 -10 -10 -22 -10 -12 0 -19 -3 -15 -6 3 -3 22 -6 41 -6 51 0
45 -18 -6 -19 -24 0 -36 -3 -28 -6 43 -14 44 -16 15 -23 l-30 -8 28 -1 c37 -1
35 -21 -3 -21 -26 0 -30 4 -30 28 l0 28 -67 -3 c-62 -4 -65 -3 -52 13 9 12 10
15 2 10 -8 -4 -13 -1 -13 8 0 9 9 16 20 16 13 0 20 -6 18 -14 -3 -16 -4 -16
52 -16 22 0 40 4 40 9 0 5 -18 7 -40 4 -25 -4 -40 -2 -40 5 0 10 21 14 108 20
12 1 22 -2 22 -8z m35 0 c-3 -5 -10 -10 -16 -10 -5 0 -9 5 -9 10 0 6 7 10 16
10 8 0 12 -4 9 -10z m405 0 c-20 -13 -110 -13 -110 0 0 6 27 10 63 10 44 0 58
-3 47 -10z m-870 -40 c0 -22 -4 -40 -9 -40 -9 0 -20 67 -12 75 13 14 21 1 21
-35z m670 30 c0 -5 -9 -10 -21 -10 -11 0 -17 5 -14 10 3 6 13 10 21 10 8 0 14
-4 14 -10z m77 4 c-3 -3 -12 -4 -19 -1 -8 3 -5 6 6 6 11 1 17 -2 13 -5z m2428
-44 c-5 -21 -11 -30 -21 -26 -7 3 -16 1 -19 -5 -4 -5 -11 -7 -16 -4 -16 11
-10 35 17 62 31 31 49 19 39 -27z m-2560 31 c-16 -15 -105 -18 -105 -4 0 9 18
13 57 13 34 0 53 -4 48 -9z m295 -1 c0 -5 -5 -10 -11 -10 -5 0 -7 5 -4 10 3 6
8 10 11 10 2 0 4 -4 4 -10z m2180 5 c0 -12 -24 -55 -32 -55 -10 0 -11 44 -1
53 7 8 33 9 33 2z m-3251 -20 c28 -14 29 -17 35 -117 3 -57 9 -135 12 -174 l6
-72 -32 -7 c-17 -4 -33 -5 -35 -3 -8 8 -30 388 -22 388 4 0 21 -7 36 -15z
m1021 5 c-37 -12 -102 -12 -95 0 3 6 32 10 63 9 44 -1 51 -3 32 -9z m-894 -37
c-11 -11 -17 4 -9 23 7 18 8 18 11 1 2 -10 1 -21 -2 -24z m91 21 c7 -20 -14
-67 -27 -59 -17 10 -12 75 5 75 9 0 18 -7 22 -16z m613 6 c0 -5 -9 -10 -21
-10 -11 0 -17 5 -14 10 3 6 13 10 21 10 8 0 14 -4 14 -10z m-440 -10 c0 -5
-16 -10 -35 -10 -19 0 -35 5 -35 10 0 6 16 10 35 10 19 0 35 -4 35 -10z m385
0 c-3 -5 -29 -10 -56 -10 -31 0 -48 4 -44 10 3 6 29 10 56 10 31 0 48 -4 44
-10z m3175 -9 c0 -11 -4 -23 -10 -26 -6 -4 -10 5 -10 19 0 14 5 26 10 26 6 0
10 -9 10 -19z m-3683 -2 c8 -8 8 -19 0 -40 -15 -40 -37 -37 -37 4 0 45 14 59
37 36z m363 1 c0 -5 -4 -10 -10 -10 -5 0 -10 5 -10 10 0 6 5 10 10 10 6 0 10
-4 10 -10z m370 0 c-25 -4 -49 -4 -54 1 -6 5 12 8 45 8 l54 -2 -45 -7z m-908
-19 l45 -19 1 -63 c1 -35 5 -100 8 -145 l6 -81 -32 -7 c-58 -11 -57 -12 -64
87 -4 50 -9 127 -13 170 -3 42 -3 77 0 77 3 0 25 -9 49 -19z m358 9 c0 -5 -7
-10 -15 -10 -8 0 -15 5 -15 10 0 6 7 10 15 10 8 0 15 -4 15 -10z m75 0 c-3 -5
-17 -10 -31 -10 -13 0 -24 5 -24 10 0 6 14 10 31 10 17 0 28 -4 24 -10z m315
0 c0 -5 -11 -10 -25 -10 -14 0 -25 5 -25 10 0 6 11 10 25 10 14 0 25 -4 25
-10z m67 4 c-3 -3 -12 -4 -19 -1 -8 3 -5 6 6 6 11 1 17 -2 13 -5z m1924 -16
c10 -13 18 -28 19 -34 0 -13 -39 -26 -52 -18 -9 6 -11 36 -2 58 8 21 12 20 35
-6z m59 1 c0 -6 -4 -7 -10 -4 -5 3 -10 11 -10 16 0 6 5 7 10 4 6 -3 10 -11 10
-16z m-2580 -34 c0 -39 -10 -49 -33 -32 -14 11 -14 16 -2 45 18 40 35 34 35
-13z m72 33 c-8 -8 -17 -8 -34 0 -22 10 -21 11 12 11 26 1 31 -2 22 -11z m393
2 c-3 -5 -29 -10 -56 -10 -31 0 -48 4 -44 10 3 6 29 10 56 10 31 0 48 -4 44
-10z m250 0 c4 -6 -6 -10 -22 -10 -22 0 -25 2 -13 10 19 12 27 12 35 0z m-395
-10 c0 -5 -4 -10 -10 -10 -5 0 -10 5 -10 10 0 6 5 10 10 10 6 0 10 -4 10 -10z
m275 0 c3 -5 1 -10 -4 -10 -6 0 -11 5 -11 10 0 6 2 10 4 10 3 0 8 -4 11 -10z
m-449 -20 c0 -13 -7 -20 -18 -20 -11 0 -18 7 -18 20 0 13 7 20 18 20 11 0 18
-7 18 -20z m54 10 c-24 -8 -24 -8 -2 -9 32 -1 27 -21 -6 -21 -21 0 -28 5 -28
20 0 16 7 20 31 19 29 -1 29 -1 5 -9z m330 0 c0 -5 -11 -10 -25 -10 -14 0 -25
5 -25 10 0 6 11 10 25 10 14 0 25 -4 25 -10z m1912 -7 c25 -22 23 -33 -7 -33
-20 0 -25 5 -25 25 0 29 7 31 32 8z m-2396 -25 c-5 -29 -5 -30 4 -10 14 33 35
22 35 -18 0 -38 -15 -48 -38 -26 -8 8 -17 12 -21 9 -10 -10 -18 26 -12 52 4
14 13 25 22 25 12 0 14 -7 10 -32z m423 28 c-11 -9 -99 -15 -99 -6 0 6 23 10
52 10 28 0 49 -2 47 -4z m201 -6 c0 -5 -12 -10 -27 -10 -22 0 -25 2 -13 10 20
13 40 13 40 0z m2345 -177 c-3 -104 -10 -208 -15 -233 -5 -25 -16 -85 -26
-135 -19 -101 -21 -105 -34 -85 -8 12 -10 10 -10 -8 0 -13 4 -20 10 -17 6 3
10 2 10 -3 0 -10 -23 -22 -41 -22 -5 0 -9 113 -9 271 l0 271 27 50 c15 27 35
54 45 59 10 5 18 16 18 24 0 8 7 15 15 15 13 0 14 -25 10 -187z m-3150 41 c6
-122 4 -156 -9 -143 -3 3 -9 66 -13 142 -6 100 -5 137 3 137 8 0 14 -45 19
-136z m415 126 c-10 -6 -11 -10 -2 -10 21 0 13 -18 -10 -23 -16 -3 -13 -5 11
-6 26 -1 32 2 27 14 -3 8 -2 15 3 15 5 0 11 -9 14 -20 5 -18 0 -20 -38 -20
-40 0 -43 2 -47 30 -4 28 -2 30 26 30 24 0 27 -3 16 -10z m185 -10 c-3 -5 -27
-10 -53 -9 -35 0 -42 3 -27 9 28 12 88 12 80 0z m58 3 c-7 -2 -21 -2 -30 0
-10 3 -4 5 12 5 17 0 24 -2 18 -5z m-602 -18 c88 -40 84 -35 90 -110 l5 -70 2
63 c2 65 6 69 45 51 25 -11 37 -47 37 -115 0 -24 -5 -33 -22 -38 -37 -10 -48
-7 -49 12 -1 15 -2 15 -6 1 -4 -15 -71 -35 -81 -24 -3 2 -8 53 -13 112 l-8
108 4 -112 c2 -103 1 -113 -15 -113 -15 0 -19 12 -24 78 -6 75 -9 149 -7 165
1 10 3 9 42 -8z m762 8 c-13 -2 -33 -2 -45 0 -13 2 -3 4 22 4 25 0 35 -2 23
-4z m2228 -46 c-13 -13 -15 11 -4 40 7 16 8 15 11 -6 2 -13 -1 -28 -7 -34z
m-2700 34 c-12 -8 -51 -4 -51 5 0 2 15 4 33 4 22 0 28 -3 18 -9z m312 2 c-7
-2 -19 -2 -25 0 -7 3 -2 5 12 5 14 0 19 -2 13 -5z m-375 -30 c6 -15 12 -35 12
-46 0 -11 -5 -17 -12 -14 -7 2 -12 15 -11 28 1 15 0 17 -3 7 -9 -31 -24 -20
-24 17 0 42 20 46 38 8z m300 20 c-16 -2 -40 -2 -55 0 -16 2 -3 4 27 4 30 0
43 -2 28 -4z m242 3 c0 -2 -16 -6 -35 -8 -19 -2 -35 0 -35 4 0 4 16 8 35 8 19
0 35 -2 35 -4z m1767 -92 c-2 -3 -16 0 -31 6 -23 8 -27 15 -24 42 2 25 9 34
28 38 23 6 25 3 28 -38 2 -24 1 -46 -1 -48z m51 76 c-15 -23 -28 -26 -28 -7 0
17 10 27 27 27 11 0 11 -4 1 -20z m80 -18 c2 -18 -1 -32 -6 -32 -12 0 -22 24
-22 52 0 32 25 15 28 -20z m-2368 18 c0 -5 -4 -10 -10 -10 -5 0 -10 5 -10 10
0 6 5 10 10 10 6 0 10 -4 10 -10z m310 0 c0 -5 -9 -10 -20 -10 -11 0 -20 5
-20 10 0 6 9 10 20 10 11 0 20 -4 20 -10z m-347 -35 c-3 -5 0 -4 7 2 17 16 41
-2 33 -23 -3 -8 -1 -14 5 -14 6 0 12 5 14 12 2 6 9 8 16 4 15 -9 3 -38 -14
-32 -9 3 -14 -2 -15 -12 0 -14 -2 -14 -7 -2 -4 8 -16 15 -26 15 -15 0 -20 9
-23 45 -2 31 -1 41 6 30 5 -8 7 -19 4 -25z m267 25 l-25 -8 25 -2 25 -2 -25
-8 c-21 -7 -22 -8 -5 -9 13 -1 21 -8 22 -21 1 -16 -5 -20 -35 -22 l-37 -1 40
-5 c32 -3 36 -6 20 -12 -19 -8 -19 -9 3 -9 25 -1 33 -41 7 -41 -8 0 -15 5 -15
10 0 6 -7 10 -16 10 -8 0 -12 5 -9 10 3 6 -4 10 -17 10 -17 0 -24 6 -25 20 -1
16 5 20 30 22 l32 1 -35 5 c-29 4 -32 6 -15 12 17 7 17 9 3 9 -11 1 -18 9 -18
21 0 17 6 20 48 19 38 -1 42 -2 22 -9z m-154 -20 c0 -11 -6 -20 -14 -20 -7 0
-10 5 -7 10 3 6 -3 10 -14 10 -12 0 -21 5 -21 10 0 6 13 10 28 10 21 0 28 -5
28 -20z m34 -10 c0 -16 -4 -30 -8 -30 -4 0 -9 14 -10 30 -1 17 2 30 8 30 5 0
10 -13 10 -30z m200 5 c0 -8 -9 -15 -20 -15 -11 0 -20 7 -20 15 0 8 9 15 20
15 11 0 20 -7 20 -15z m-7 -32 c-7 -2 -19 -2 -25 0 -7 3 -2 5 12 5 14 0 19 -2
13 -5z m2117 -8 c10 -12 10 -15 -4 -15 -9 0 -16 7 -16 15 0 8 2 15 4 15 2 0 9
-7 16 -15z m-2340 -8 c0 -7 -6 -21 -13 -32 -17 -22 -32 -5 -22 25 7 22 35 28
35 7z m2230 -22 c19 -23 5 -29 -24 -10 -31 20 -37 52 -8 36 10 -5 25 -17 32
-26z m1123 0 c16 -20 34 -50 42 -69 8 -18 26 -41 40 -50 26 -17 27 -20 21 -84
-3 -37 -8 -108 -12 -159 -4 -62 -10 -93 -19 -97 -8 -3 -40 -8 -73 -12 l-59 -6
2 43 c2 24 4 105 5 179 3 167 11 290 19 290 3 0 19 -16 34 -35z m-3495 -8 c2
-15 7 -27 12 -27 5 0 7 7 4 15 -8 20 15 19 44 -1 33 -23 29 -54 -7 -54 -16 0
-43 -3 -60 -6 l-31 -6 0 56 c0 49 2 57 18 54 10 -2 18 -14 20 -31z m370 21
c17 -17 15 -45 -4 -52 -29 -11 -34 -6 -34 29 0 36 15 46 38 23z m-198 -23 c0
-18 -4 -23 -15 -19 -17 7 -17 7 -9 28 9 24 24 19 24 -9z m40 -15 c0 -11 -4
-20 -10 -20 -5 0 -10 9 -10 20 0 11 5 20 10 20 6 0 10 -9 10 -20z m54 -6 c22
-9 10 -24 -20 -24 -15 0 -24 6 -24 15 0 16 17 19 44 9z m2451 -371 c-6 -98 -9
-112 -26 -116 -10 -3 -17 -1 -13 4 3 5 1 9 -5 9 -10 0 -9 303 1 360 2 14 0 31
-5 38 -7 8 -5 12 6 12 9 0 21 16 29 38 12 35 13 28 16 -98 2 -74 0 -185 -3
-247z m-2600 347 c3 -5 -1 -10 -9 -10 -9 0 -16 5 -16 10 0 6 4 10 9 10 6 0 13
-4 16 -10z m2470 0 c3 -5 1 -10 -4 -10 -6 0 -11 5 -11 10 0 6 2 10 4 10 3 0 8
-4 11 -10z m-2308 -26 c-3 -3 -12 -4 -19 -1 -8 3 -5 6 6 6 11 1 17 -2 13 -5z
m-127 -26 l9 -23 0 23 c1 12 5 22 9 22 12 0 23 -356 15 -474 l-6 -96 -26 7
c-14 3 -27 6 -27 7 -1 1 -7 107 -14 236 -7 129 -15 237 -18 240 -5 5 4 -235
15 -384 l6 -89 -29 7 c-16 4 -30 9 -31 10 -6 5 -34 499 -29 511 3 8 24 15 53
18 26 2 52 4 56 5 4 1 12 -8 17 -20z m206 -5 c-4 -16 -13 -32 -19 -38 -7 -5
-12 -25 -11 -44 1 -18 -5 -65 -13 -105 -17 -86 -21 -218 -10 -307 8 -62 7 -67
-12 -72 -12 -3 -23 -2 -25 1 -4 8 -30 450 -31 527 0 46 2 50 24 53 15 3 30 -3
38 -14 12 -17 13 -17 14 2 0 18 1 18 9 -1 8 -19 9 -19 9 3 1 13 7 22 17 22 13
0 15 -6 10 -27z m-346 -11 c0 -38 20 -389 25 -440 l5 -53 -27 3 -28 3 -6 110
c-4 61 -9 174 -12 253 l-6 142 25 0 c17 0 24 -6 24 -18z m215 -124 c17 -319
20 -410 13 -414 -11 -7 -38 344 -38 494 0 118 18 61 25 -80z m-282 65 c4 -38
10 -148 13 -246 l7 -178 -29 7 c-16 3 -32 9 -35 13 -5 5 -30 389 -29 454 0 13
8 17 34 17 l33 0 6 -67z m-80 -50 c4 -60 10 -164 13 -232 l7 -123 -34 7 c-19
4 -35 9 -37 10 -3 3 -31 378 -32 423 0 19 5 22 39 22 l38 0 6 -107z m2687 77
c0 -28 -2 -29 -20 -18 -23 14 -26 34 -7 41 23 10 27 7 27 -23z m-2854 -167
c19 -250 22 -226 -28 -218 -24 4 -44 8 -45 9 -2 2 -22 252 -26 331 l-2 50 40
5 c22 3 42 5 44 3 1 -1 9 -82 17 -180z m30 -18 c5 -113 6 -205 2 -205 -5 0 -8
13 -8 28 0 34 -18 281 -25 340 -3 31 -1 42 9 42 10 0 15 -46 22 -205z m48 123
c3 -46 8 -135 12 -198 3 -63 8 -123 10 -132 4 -13 0 -18 -15 -18 -27 0 -29 11
-36 185 -3 83 -8 171 -11 198 -5 42 -4 47 14 47 17 0 20 -9 26 -82z m-193 55
c0 -10 6 -94 13 -188 7 -93 12 -172 10 -174 -2 -2 -18 0 -36 5 l-33 10 -7 114
c-3 63 -9 143 -12 177 -5 61 -5 62 22 66 15 2 30 5 35 6 4 0 7 -7 8 -16z
m3019 -24 c0 -10 -7 -19 -15 -19 -9 0 -15 9 -15 25 0 18 4 23 15 19 8 -4 15
-15 15 -25z m-3103 -141 c5 -90 7 -166 4 -170 -3 -4 -25 -2 -47 3 -40 10 -42
13 -47 57 -4 26 -9 98 -13 160 l-7 112 50 0 49 0 11 -162z m-123 135 c2 -10 7
-65 11 -123 3 -58 8 -118 12 -134 5 -29 5 -29 -33 -23 -20 4 -41 10 -45 14 -8
9 -29 264 -22 276 2 4 19 7 38 7 24 0 35 -5 39 -17z m-99 -124 c4 -72 5 -132
3 -134 -1 -2 -25 2 -51 8 -55 12 -53 8 -62 149 l-5 97 32 4 c82 10 75 22 83
-124z m-120 -1 c6 -90 5 -108 -7 -108 -35 0 -46 24 -52 122 -6 95 -6 97 16
100 13 2 26 2 29 -1 4 -4 10 -54 14 -113z m-81 90 c3 -13 7 -58 9 -100 4 -76
3 -78 -19 -78 -25 0 -29 13 -38 127 -4 61 0 70 31 72 7 1 15 -9 17 -21z m-61
-69 c4 -45 4 -85 2 -89 -6 -9 -103 14 -116 27 -4 4 -9 35 -10 68 l-3 60 40 6
c86 13 80 18 87 -72z m3583 -6 c-3 -42 -6 -90 -7 -107 -1 -30 -1 -30 -9 -6
-10 31 -12 174 -3 183 20 21 25 1 19 -70z m-3726 23 c0 -24 3 -52 7 -62 7 -18
-10 -17 -99 7 -36 9 -38 12 -38 49 0 43 6 46 88 49 l42 1 0 -44z m-150 22 c0
-7 3 -23 6 -35 5 -19 2 -23 -15 -23 -17 0 -21 6 -21 35 0 24 5 35 15 35 8 0
15 -6 15 -12z m3829 -50 c-1 -54 -15 -133 -18 -103 -1 6 -5 4 -10 -3 -5 -9 -9
18 -10 67 -2 87 2 101 25 101 11 0 14 -14 13 -62z m-3879 26 c0 -27 -5 -27
-70 -2 -24 10 -24 11 -5 18 11 5 32 9 48 9 23 1 27 -3 27 -25z m-101 -166 c16
-195 15 -228 -7 -228 -17 0 -20 19 -36 197 -13 153 -14 198 -4 204 22 14 37
-39 47 -173z m71 131 l37 -11 14 -157 c7 -86 14 -160 14 -166 0 -5 -20 -10
-45 -10 l-45 0 -12 140 c-14 167 -15 215 -7 215 4 0 23 -5 44 -11z m91 -69 c4
-25 10 -96 14 -157 6 -96 5 -113 -8 -113 -11 0 -17 29 -26 143 -7 78 -14 150
-16 160 -2 13 2 17 13 15 11 -2 19 -18 23 -48z m146 7 c5 -6 23 -261 18 -266
-3 -2 -32 -7 -64 -9 l-58 -4 -6 43 c-4 24 -10 94 -13 156 l-7 112 64 -15 c35
-8 64 -16 66 -17z m81 -18 c26 -7 51 -15 56 -20 8 -7 55 -630 56 -740 l0 -47
-55 1 c-46 1 -55 4 -55 18 0 14 10 19 53 22 l52 3 -56 2 -57 2 -6 98 c-3 53
-8 153 -12 222 -3 69 -12 187 -20 264 -15 151 -17 186 -8 186 3 0 26 -5 52
-11z m133 -68 c0 -20 10 -182 22 -360 19 -271 20 -326 9 -338 -11 -11 -11 -13
2 -13 9 0 16 -7 16 -16 0 -10 -7 -14 -22 -12 -21 3 -24 10 -30 78 -7 75 -48
665 -48 692 0 11 7 14 25 10 21 -4 25 -10 26 -41z m58 20 c13 -8 18 -24 20
-68 1 -32 8 -185 17 -339 8 -155 13 -294 10 -309 -7 -39 -23 -53 -32 -30 -5
12 -3 20 5 23 9 3 9 7 -2 16 -13 10 -22 107 -54 614 -6 107 -4 114 36 93z
m127 -32 c8 -7 33 -415 38 -638 1 -35 1 -35 -47 -38 -32 -2 -49 1 -51 9 -2 7
-9 126 -15 263 -7 138 -15 291 -18 342 l-6 92 44 -11 c24 -6 49 -15 55 -19z
m3244 -4 c0 -8 -7 -15 -15 -15 -9 0 -12 6 -9 15 4 8 10 15 15 15 5 0 9 -7 9
-15z m1057 -42 c-4 -27 -9 -112 -13 -191 -6 -117 -10 -144 -23 -152 -9 -4 -86
-11 -171 -14 -91 -3 -143 -2 -125 3 17 5 78 9 138 10 59 0 107 4 108 9 0 4 2
16 4 27 2 10 0 24 -4 30 -5 5 -12 27 -15 49 -4 21 -10 35 -13 32 -16 -16 -29
39 -32 131 l-3 102 54 4 c29 2 64 4 77 5 22 2 23 0 18 -45z m-4182 25 c1 -1 8
-118 14 -258 6 -140 14 -288 17 -327 5 -69 5 -73 -15 -73 -21 0 -28 -14 -12
-24 5 -4 12 0 14 6 4 9 6 10 6 1 1 -19 -20 -27 -30 -12 -7 11 -9 11 -9 1 0 -7
-4 -10 -10 -7 -5 3 -10 11 -10 16 0 6 5 7 10 4 6 -3 10 -2 10 4 0 5 -4 11 -10
13 -5 2 -16 109 -25 238 -9 129 -19 279 -23 334 l-8 98 39 -5 c21 -3 40 -7 42
-9z m4020 -86 c-10 -69 -17 -42 -8 34 5 43 9 58 11 40 2 -17 1 -50 -3 -74z
m-3913 60 c5 -6 28 -477 28 -591 l0 -41 -45 0 -45 0 0 48 c0 52 -15 350 -26
506 l-6 99 43 -7 c24 -4 47 -10 51 -14z m3021 3 c1 -5 -7 -11 -18 -12 l-20 -2
20 6 20 6 -20 8 c-16 7 -17 8 -2 6 10 -1 19 -6 20 -12z m-2918 -27 c4 -4 24
-406 26 -517 1 -57 -2 -86 -10 -89 -6 -2 -8 -8 -5 -14 4 -5 -5 -2 -20 7 -21
14 -26 25 -26 59 0 22 -7 140 -15 261 -8 121 -15 241 -15 267 l0 47 31 -9 c18
-5 33 -11 34 -12z m3151 -13 c1 -8 -1 -15 -6 -15 -10 0 -20 26 -13 34 8 8 16
-1 19 -19z m-3065 -1 c22 -6 28 -79 30 -359 l1 -230 -36 -3 c-36 -3 -36 -3
-36 35 0 51 -18 399 -25 496 l-6 78 28 -7 c15 -3 35 -8 44 -10z m2833 -16 c3
-13 6 -30 6 -37 0 -25 -22 5 -25 33 -4 32 10 34 19 4z m-2779 -155 c4 -87 10
-216 14 -286 5 -110 1 -151 -14 -136 -6 7 -20 579 -14 579 4 0 10 -71 14 -157z
m42 149 c18 -11 33 -559 15 -581 -7 -9 -12 -11 -11 -6 1 6 0 17 -3 25 -6 14
-28 451 -28 533 0 37 5 43 27 29z m90 -24 c8 -7 12 -79 13 -256 0 -135 3 -256
6 -269 6 -21 3 -23 -29 -23 l-35 0 -6 138 c-3 75 -8 203 -12 283 l-6 147 29
-6 c15 -2 33 -9 40 -14z m3033 -6 c0 -7 -4 -11 -9 -7 -6 3 -18 -11 -27 -31
l-18 -37 -18 23 c-10 13 -18 30 -16 39 5 25 88 38 88 13z m40 8 c0 -5 -4 -10
-10 -10 -5 0 -10 5 -10 10 0 6 5 10 10 10 6 0 10 -4 10 -10z m-2985 -44 c2
-17 6 -137 7 -266 l3 -235 -31 -3 -31 -3 -6 173 c-4 95 -7 218 -7 274 l0 101
30 -5 c24 -3 30 -10 35 -36z m3182 23 c32 -12 22 -22 -33 -33 -24 -5 -33 -3
-38 9 -13 35 17 45 71 24z m-3129 -5 c21 -6 22 -11 23 -128 3 -249 13 -389 29
-394 12 -4 13 -2 4 9 -7 9 -12 79 -13 189 -1 96 -4 205 -8 243 -5 61 -4 67 13
67 44 -1 46 -9 53 -221 7 -241 5 -276 -17 -282 -10 -3 -4 -5 12 -6 l29 -1 -7
168 c-3 92 -7 203 -8 247 -1 79 -1 80 23 76 13 -1 27 -8 30 -13 4 -5 7 -78 9
-161 1 -84 4 -183 6 -222 3 -84 -10 -127 -44 -143 -31 -15 -92 -16 -92 -2 0 6
-7 10 -16 10 -11 0 -15 6 -11 20 4 15 0 20 -13 20 -16 0 -18 15 -24 158 -3 86
-8 205 -11 265 -2 59 -1 107 3 107 4 0 17 -3 30 -6z m3027 -106 c-5 -152 -8
-145 83 -142 l77 3 -60 -9 c-33 -4 -98 -8 -144 -9 l-83 -1 7 103 c7 103 20
137 53 137 8 0 20 -7 27 -17 15 -21 35 -9 28 17 -3 11 -1 20 5 20 7 0 9 -36 7
-102z m-4145 58 c0 -7 3 -34 6 -60 l7 -46 -65 0 -65 0 -7 38 c-12 76 -19 71
102 80 13 1 22 -4 22 -12z m3630 4 c0 -5 -5 -10 -11 -10 -5 0 -7 5 -4 10 3 6
8 10 11 10 2 0 4 -4 4 -10z m-3772 -58 c2 -42 0 -52 -12 -52 -13 0 -16 12 -16
56 0 73 24 70 28 -4z m4139 21 c-3 -10 -5 -4 -5 12 0 17 2 24 5 18 2 -7 2 -21
0 -30z m-4187 8 c0 -18 -2 -18 -42 -4 -58 20 -59 23 -5 23 39 0 47 -3 47 -19z
m1584 1 c2 -4 -2 -18 -10 -32 -7 -14 -14 -23 -14 -20 -7 29 -8 45 -4 52 6 10
21 10 28 0z m2133 -94 c-4 -14 -1 -18 8 -14 10 3 12 0 8 -11 -5 -14 -9 -13
-25 7 -12 15 -18 38 -18 74 l1 51 15 -44 c9 -24 13 -52 11 -63z m111 -53 c0
-38 -2 -64 -5 -57 -2 6 -9 10 -13 7 -5 -3 -12 0 -16 6 -4 7 -3 9 3 6 14 -9 22
65 13 131 -3 29 -4 55 -1 58 9 9 20 -73 19 -151z m-2288 120 c0 -14 -4 -25
-10 -25 -5 0 -10 11 -10 25 0 14 5 25 10 25 6 0 10 -11 10 -25z m-1658 -25 c3
-36 1 -40 -19 -40 -20 0 -23 5 -23 40 0 33 4 40 19 40 15 0 20 -9 23 -40z m95
18 c22 -18 15 -47 -12 -54 -40 -10 -55 1 -55 42 0 34 1 36 27 29 16 -4 34 -11
40 -17z m4188 -86 c-3 -3 -13 2 -22 11 -16 15 -15 18 3 38 l19 21 3 -32 c2
-17 1 -35 -3 -38z m-2625 28 c0 -11 -4 -20 -8 -20 -4 0 -8 9 -9 20 -1 11 2 20
8 20 5 0 9 -9 9 -20z m-1530 -32 c0 -13 7 -88 15 -168 8 -80 15 -148 15 -152
0 -5 -17 -9 -37 -10 l-38 -1 38 -4 c41 -5 44 -13 26 -75 -11 -41 -27 -46 -98
-32 -26 6 -31 11 -31 36 0 19 -4 27 -11 22 -7 -4 -6 2 2 17 l12 23 15 -22 c20
-30 29 -28 34 8 3 17 2 30 -2 30 -6 0 -30 265 -30 322 0 11 10 18 33 21 17 2
38 5 45 5 6 1 12 -8 12 -20z m52 -74 c15 -202 18 -314 9 -314 -5 0 -12 39 -16
88 -4 48 -11 125 -16 172 -12 118 -12 153 4 148 8 -3 14 -36 19 -94z m141 49
c4 -27 10 -118 13 -205 l7 -156 -62 1 c-57 1 -61 3 -61 24 0 21 5 23 58 25
l57 1 -60 6 -60 6 -7 110 c-3 61 -9 138 -13 173 l-7 62 65 0 64 0 6 -47z
m-303 -127 c6 -85 9 -159 6 -165 -4 -6 -13 -8 -20 -5 -9 3 -16 47 -24 143 -16
181 -16 181 7 181 16 0 19 -15 31 -154z m1637 72 c-2 -13 -4 -5 -4 17 -1 22 1
32 4 23 2 -10 2 -28 0 -40z m57 9 c14 -18 27 -46 30 -62 3 -17 12 -55 20 -85
8 -30 11 -56 6 -58 -4 -2 -6 -11 -3 -21 4 -16 -2 -19 -35 -23 l-40 -3 -6 44
c-7 51 -8 241 -2 241 3 0 16 -15 30 -33z m2141 -7 c3 -5 1 -10 -4 -10 -6 0
-11 5 -11 10 0 6 2 10 4 10 3 0 8 -4 11 -10z m-2217 -245 c-5 -5 -7 47 -6 115
l2 125 5 -115 c4 -63 3 -119 -1 -125z m2105 228 c-7 -2 -19 -2 -25 0 -7 3 -2
5 12 5 14 0 19 -2 13 -5z m705 -30 l-3 -38 -52 -3 c-38 -2 -53 1 -53 10 0 7
-3 23 -6 35 -5 19 -1 22 28 26 89 11 90 11 86 -30z m-170 11 c5 -9 7 -26 4
-38 -5 -18 -3 -19 10 -9 14 12 28 8 28 -9 0 -14 -47 -9 -60 7 -13 15 -20 46
-13 58 7 12 21 8 31 -9z m-407 -13 c7 11 9 10 9 -4 0 -20 -22 -19 -26 1 -2 9
-1 9 3 1 4 -8 8 -7 14 2z m69 -48 c0 -19 -3 -24 -10 -17 -6 6 -8 18 -4 27 9
24 14 21 14 -10z m-117 -13 c3 -13 0 -20 -9 -20 -8 0 -14 9 -14 20 0 11 4 20
9 20 5 0 11 -9 14 -20z m52 0 c18 -20 17 -20 -7 -20 -17 0 -27 7 -31 20 -3 12
0 20 7 20 7 0 21 -9 31 -20z m979 -12 c-13 -3 -95 -6 -182 -6 l-157 1 158 8
c88 5 166 13 175 18 11 6 19 5 24 -2 5 -8 -2 -15 -18 -19z m-3897 -40 c-2 -13
-4 -3 -4 22 0 25 2 35 4 23 2 -13 2 -33 0 -45z m4192 58 c-2 -2 -56 -7 -119
-10 -80 -5 -110 -4 -100 3 13 10 229 16 219 7z m-4402 -123 c-2 -16 -4 -5 -4
22 0 28 2 40 4 28 2 -13 2 -35 0 -50z m2943 52 c-7 -8 -19 -15 -26 -15 -8 0
-14 7 -14 15 0 10 10 15 26 15 22 0 25 -2 14 -15z m1016 -24 c-3 -5 -18 -11
-33 -14 -26 -5 -26 -4 -8 9 21 15 49 19 41 5z m349 -26 c0 -14 -8 -21 -27 -23
-22 -3 -28 1 -28 17 0 10 6 22 13 24 23 10 42 2 42 -18z m-72 -5 c-4 -15 -14
-20 -39 -20 -19 0 -34 4 -34 8 0 16 25 32 51 32 22 0 26 -4 22 -20z m-1110 -7
c19 -9 27 -18 19 -21 -18 -6 -73 18 -66 29 7 12 10 12 47 -8z m997 -13 c11 -7
7 -10 -18 -10 -20 0 -31 4 -27 10 8 13 26 13 45 0z m-160 -10 c0 -5 -15 -10
-32 -9 -28 0 -30 2 -13 9 28 12 45 12 45 0z m60 6 c0 -2 -7 -6 -15 -10 -8 -3
-15 -1 -15 4 0 6 7 10 15 10 8 0 15 -2 15 -4z m-4821 -33 c10 -20 9 -21 -10
-18 -30 6 -33 11 -18 28 8 8 15 14 15 13 1 0 6 -11 13 -23z m768 13 c0 -10
-15 -15 -44 -18 -36 -3 -43 0 -43 14 0 14 9 18 43 18 31 0 44 -4 44 -14z m183
2 c0 -4 5 -8 11 -8 5 0 7 5 4 10 -3 6 -1 10 4 10 6 0 11 -7 11 -15 0 -15 -26
-20 -54 -9 -23 9 -20 23 4 21 11 -1 20 -5 20 -9z m190 2 c0 -5 -2 -10 -4 -10
-3 0 -8 5 -11 10 -3 6 -1 10 4 10 6 0 11 -4 11 -10z m2979 -7 c8 -16 4 -18
-42 -18 -78 0 -74 30 5 34 17 1 31 -6 37 -16z m-3039 -9 c0 -2 -9 -4 -20 -4
-11 0 -20 4 -20 9 0 5 9 7 20 4 11 -3 20 -7 20 -9z m3923 9 c-18 -2 -48 -2
-65 0 -18 2 -4 4 32 4 36 0 50 -2 33 -4z m51 -155 l-2 -143 10 143 c10 127 13
142 29 142 16 0 17 -7 14 -47 -3 -27 -8 -137 -11 -245 l-6 -198 -24 0 c-13 0
-24 -4 -24 -9 0 -5 8 -7 19 -4 25 7 33 -10 25 -53 -6 -31 -10 -35 -30 -31 -15
2 -24 -1 -24 -8 0 -8 9 -10 25 -7 23 4 25 1 25 -32 l0 -36 -55 0 c-30 0 -55 4
-55 9 0 5 -25 20 -55 35 l-56 26 6 108 c7 113 32 381 42 444 3 21 9 36 12 33
4 -2 13 0 21 6 8 5 38 9 66 9 l50 0 -2 -142z m-1276 117 c28 -4 52 -11 52 -16
0 -12 -17 -11 -100 2 -38 7 -67 16 -64 21 3 5 18 7 32 4 15 -3 51 -8 80 -11z
m835 3 c4 -10 7 -10 15 0 5 8 23 12 43 10 40 -4 37 23 27 -288 -7 -220 -3
-224 11 -10 6 85 14 146 20 148 14 5 14 32 1 32 -5 0 -6 8 -3 17 6 15 7 15 14
-3 9 -24 11 -334 3 -398 -6 -42 -9 -47 -28 -42 -12 4 -48 8 -80 10 -57 5 -80
18 -72 43 3 6 8 96 12 200 11 300 11 293 23 293 5 0 12 -6 14 -12z m-4593 -51
c0 -5 -4 -5 -10 -2 -6 3 -10 -4 -11 -17 0 -22 -1 -22 -8 -3 -5 11 -4 23 1 26
5 3 6 14 2 25 -6 18 -6 18 9 -1 9 -11 17 -24 17 -28z m1685 33 c-3 -5 -13 -10
-21 -10 -8 0 -14 5 -14 10 0 6 9 10 21 10 11 0 17 -4 14 -10z m123 -12 c-6
-18 -78 -23 -78 -6 0 9 14 15 41 17 30 1 40 -2 37 -11z m2072 2 c0 -5 -7 -10
-15 -10 -8 0 -15 5 -15 10 0 6 7 10 15 10 8 0 15 -4 15 -10z m107 -12 c-3 -8
-6 -5 -6 6 -1 11 2 17 5 13 3 -3 4 -12 1 -19z m-3038 -10 c0 -13 -3 -18 -5
-11 -3 7 -11 10 -18 7 -7 -3 -23 0 -37 6 l-24 10 27 -3 c15 -2 33 0 40 4 18
12 18 12 17 -13z m74 6 c-2 -5 -12 -8 -23 -7 -30 1 -32 2 -25 13 7 12 51 7 48
-6z m94 10 c-3 -3 -12 -4 -19 -1 -8 3 -5 6 6 6 11 1 17 -2 13 -5z m3738 -61
c-3 -38 -10 -158 -16 -268 -5 -110 -13 -203 -17 -207 -4 -4 -18 -2 -32 5 -21
11 -25 19 -22 52 14 214 23 306 32 329 5 15 10 45 10 67 0 39 23 89 41 89 5 0
7 -30 4 -67z m-4825 53 c0 -3 -4 -8 -10 -11 -5 -3 -10 -1 -10 4 0 6 5 11 10
11 6 0 10 -2 10 -4z m704 -12 c4 -11 2 -15 -8 -11 -10 4 -12 0 -9 -14 3 -10 1
-19 -5 -19 -15 0 -21 37 -9 49 15 15 24 14 31 -5z m86 6 c-36 -12 -60 -12 -60
0 0 6 19 10 43 9 36 -1 38 -2 17 -9z m-336 -16 c-1 -5 -5 -25 -8 -44 -7 -33
-6 -34 9 -16 15 19 15 19 15 -2 0 -12 -6 -22 -14 -22 -8 0 -17 -6 -19 -12 -3
-7 -6 1 -6 18 -1 17 -4 46 -7 64 -6 28 -4 31 12 28 10 -2 18 -8 18 -14z m128
-14 c5 -31 -14 -70 -34 -70 -5 0 -8 7 -4 15 3 8 1 15 -5 15 -7 0 -9 -10 -5
-25 7 -26 -8 -35 -18 -12 -3 6 -4 -1 -1 -16 4 -20 2 -27 -5 -22 -14 8 -4 73
13 94 9 10 6 18 -12 32 l-23 19 45 0 c42 0 45 -2 49 -30z m64 21 c-4 -5 -1
-11 4 -13 12 -4 2 -68 -11 -68 -5 0 -9 12 -9 26 0 14 4 23 10 19 6 -3 10 -1
10 4 0 6 -7 11 -15 11 -9 0 -12 6 -9 15 4 8 10 15 16 15 5 0 7 -4 4 -9z m-331
-22 c-1 -11 -7 -24 -14 -29 -17 -10 -6 -30 16 -30 11 0 8 -6 -10 -20 -14 -11
-37 -19 -51 -18 -24 2 -25 5 -23 60 l1 58 41 0 c36 0 41 -3 40 -21z m49 4 c-5
-17 -5 -17 9 0 22 27 27 21 26 -35 -1 -45 -2 -49 -9 -23 -5 19 -8 23 -9 11 -1
-20 -1 -20 -16 0 -16 22 -20 64 -5 64 5 0 7 -8 4 -17z m443 -34 l2 -44 -12 41
c-8 28 -17 40 -27 37 -13 -4 -13 -3 0 6 25 18 35 7 37 -40z m74 41 c5 0 9 -7
9 -16 0 -8 -4 -12 -10 -9 -5 3 -10 -2 -10 -11 0 -16 -1 -16 -15 2 -19 26 -19
48 1 40 9 -3 20 -6 25 -6z m-701 -56 c0 -26 -4 -43 -10 -39 -5 3 -7 12 -3 20
3 8 0 15 -6 15 -6 0 -11 -4 -11 -10 0 -16 -27 -12 -34 5 -3 8 -12 15 -21 15
-8 0 -15 8 -14 18 0 10 3 12 6 5 2 -7 17 -13 33 -13 20 0 29 6 33 21 9 35 27
11 27 -37z m330 35 c0 -5 -4 -9 -10 -9 -5 0 -10 7 -10 16 0 8 5 12 10 9 6 -3
10 -10 10 -16z m-385 1 c3 -5 -1 -10 -9 -10 -9 0 -16 5 -16 10 0 6 4 10 9 10
6 0 13 -4 16 -10z m582 -32 c-3 -7 -5 -2 -5 12 0 14 2 19 5 13 2 -7 2 -19 0
-25z m3498 -28 c0 -83 -14 -367 -21 -432 -6 -56 -8 -58 -35 -58 -35 0 -34 -19
-14 300 16 236 19 254 55 247 11 -2 15 -16 15 -57z m-4282 26 c4 -10 1 -13 -9
-9 -15 6 -19 23 -5 23 5 0 11 -7 14 -14z m72 -45 c-3 -2 -5 1 -5 7 0 6 -6 9
-14 6 -8 -3 -17 -1 -21 5 -3 7 0 8 9 5 12 -4 16 0 17 17 1 21 2 21 10 -5 4
-17 6 -32 4 -35z m667 9 c-7 -19 -10 -20 -15 -7 -4 10 -2 17 3 17 6 0 11 10
11 23 1 13 3 16 6 6 2 -8 0 -26 -5 -39z m28 10 c0 -16 -4 -30 -8 -30 -5 0 -7
14 -4 30 2 17 6 30 8 30 2 0 4 -13 4 -30z m87 8 c-3 -8 -6 -5 -6 6 -1 11 2 17
5 13 3 -3 4 -12 1 -19z m-178 -15 c0 -16 -7 -50 -15 -78 -7 -27 -12 -36 -9
-20 2 17 0 37 -6 45 -6 11 -9 5 -10 -20 l-1 -35 -11 43 c-9 40 -8 45 14 67 32
31 39 31 38 -2z m3081 7 c-24 -15 -37 -11 -16 5 11 8 22 12 25 9 3 -3 -1 -9
-9 -14z m-2967 -5 c-3 -9 -8 -14 -10 -11 -3 3 -2 9 2 15 9 16 15 13 8 -4z
m274 -27 c-3 -7 -5 -2 -5 12 0 14 2 19 5 13 2 -7 2 -19 0 -25z m-620 -10 c-3
-7 -5 -2 -5 12 0 14 2 19 5 13 2 -7 2 -19 0 -25z m404 -1 c-8 -8 -11 -7 -11 4
0 20 13 34 18 19 3 -7 -1 -17 -7 -23z m196 11 c-3 -8 -6 -5 -6 6 -1 11 2 17 5
13 3 -3 4 -12 1 -19z m-505 -13 c-2 -14 -6 -25 -8 -25 -2 0 -4 11 -4 25 0 14
4 25 9 25 4 0 6 -11 3 -25z m475 -7 c-3 -7 -5 -2 -5 12 0 14 2 19 5 13 2 -7 2
-19 0 -25z m2917 -73 c3 -49 5 -100 6 -113 0 -14 5 -22 13 -20 7 3 14 31 17
74 4 52 8 68 19 66 8 -2 18 3 22 10 5 7 9 -29 9 -84 0 -89 -8 -116 -25 -88 -9
15 -41 12 -54 -4 -19 -22 -46 -13 -43 15 1 13 2 70 1 126 0 57 3 108 6 114 14
22 23 -8 29 -96z m-3674 75 c0 -5 -8 -10 -17 -10 -15 0 -16 2 -3 10 19 12 20
12 20 0z m229 -12 c-1 -13 1 -32 5 -43 5 -14 3 -13 -7 4 -8 13 -12 32 -9 43 6
25 12 23 11 -4z m-134 -38 c21 20 27 21 41 9 15 -12 16 -11 10 11 -6 22 -5 22
4 7 9 -15 8 -23 -6 -39 -48 -52 -85 -46 -82 16 1 38 1 39 5 7 l4 -33 24 22z
m265 -10 c0 -14 -5 -32 -10 -40 -7 -10 -8 -3 -5 25 4 30 3 35 -4 20 -11 -23
-14 -10 -4 23 7 29 23 10 23 -28z m-63 8 c-3 -7 -5 -2 -5 12 0 14 2 19 5 13 2
-7 2 -19 0 -25z m-289 -9 c-3 -8 -7 -3 -11 10 -4 17 -3 21 5 13 5 -5 8 -16 6
-23z m189 9 c-3 -8 -6 -5 -6 6 -1 11 2 17 5 13 3 -3 4 -12 1 -19z m270 -15
c-3 -10 -5 -4 -5 12 0 17 2 24 5 18 2 -7 2 -21 0 -30z m67 -39 c10 -26 6 -95
-9 -157 -18 -76 -1 -136 55 -200 49 -55 55 -102 15 -109 -14 -3 -25 -1 -25 4
0 5 -5 6 -12 2 -8 -5 -9 -2 -5 9 3 10 2 17 -3 17 -5 0 -10 -8 -12 -17 -3 -13
-6 -10 -10 9 -3 15 -1 25 3 22 5 -3 9 4 9 15 0 10 -5 21 -10 23 -6 2 -15 35
-21 73 -6 39 -17 105 -25 148 -18 97 -18 107 2 145 17 35 38 42 48 16z m-257
-46 c-3 -8 -6 -5 -6 6 -1 11 2 17 5 13 3 -3 4 -12 1 -19z m3555 -170 c2 -37 0
-64 -4 -60 -7 7 -12 120 -8 162 3 22 4 21 6 -5 2 -16 5 -60 6 -97z m-3368 -23
l7 -110 -20 25 c-28 34 -35 97 -20 165 17 75 25 55 33 -80z m3463 -7 c-2 -13
-4 -5 -4 17 -1 22 1 32 4 23 2 -10 2 -28 0 -40z m1053 -63 l0 -35 -55 0 -55 0
0 35 0 35 55 0 55 0 0 -35z m-557 -32 c-7 -2 -19 -2 -25 0 -7 3 -2 5 12 5 14
0 19 -2 13 -5z m87 -3 c0 -5 -11 -10 -25 -10 -14 0 -25 5 -25 10 0 6 11 10 25
10 14 0 25 -4 25 -10z m70 0 c12 -8 9 -10 -12 -10 -16 0 -28 5 -28 10 0 13 20
13 40 0z m-2870 -5 c0 -2 -9 -9 -20 -15 -16 -9 -20 -8 -20 5 0 8 9 15 20 15
11 0 20 -2 20 -5z m3138 -30 c3 -30 -13 -51 -30 -38 -8 7 -30 8 -59 4 -25 -4
-50 -6 -57 -3 -16 5 -3 32 17 32 9 0 24 7 33 14 10 7 34 12 55 12 30 -1 39 -6
41 -21z m-3768 -9 c-14 -8 -29 -12 -34 -8 -10 6 20 20 44 21 8 0 4 -6 -10 -13z
m114 -68 c3 -35 8 -98 12 -140 l6 -78 -29 0 c-37 0 -46 9 -30 28 9 13 9 14 0
8 -9 -5 -13 0 -13 16 0 13 -5 65 -10 117 -5 52 -7 98 -4 103 3 4 18 8 34 8 28
0 29 -2 34 -62z m134 -13 c3 -74 -3 -115 -17 -115 -14 0 -19 21 -27 110 l-7
82 24 -4 c22 -3 24 -8 27 -73z m-650 24 c-24 -16 -38 -9 -38 16 0 25 0 25 26
9 19 -13 22 -19 12 -25z m438 -101 l7 -128 -30 0 c-35 0 -38 11 -49 161 l-7
86 29 10 c16 6 32 8 36 4 3 -3 10 -63 14 -133z m904 130 c0 -5 -22 -7 -50 -6
-27 2 -50 6 -50 11 0 4 23 6 50 5 28 -1 50 -6 50 -10z m-986 -132 c6 -77 5
-111 -3 -119 -8 -8 -11 -8 -11 1 0 10 -5 10 -20 2 -24 -13 -25 -10 -35 70 -11
90 -7 123 18 142 12 10 27 16 32 14 6 -1 14 -51 19 -110z m-186 51 c1 -7 -6
-25 -17 -39 -28 -35 -67 -28 -75 14 -10 49 -7 66 12 71 21 5 76 -27 80 -46z
m1179 35 c-10 -10 -15 -21 -12 -24 3 -3 -1 -11 -10 -18 -21 -18 -19 -33 5 -27
37 9 21 -9 -17 -21 -33 -10 -35 -9 -20 2 10 8 13 16 7 18 -6 2 -2 12 10 26 11
12 16 22 9 22 -6 0 -1 9 12 20 30 25 37 25 16 2z m1047 -8 c3 -9 -1 -14 -13
-14 -23 0 -31 8 -24 25 6 16 29 9 37 -11z m-2384 -34 c0 -33 -4 -40 -19 -40
-14 0 -20 9 -23 35 -4 33 1 39 35 44 4 0 7 -17 7 -39z m46 16 c7 -30 2 -56
-11 -59 -5 -1 -11 17 -13 41 -3 45 13 58 24 18z m208 -60 c3 -25 1 -46 -3 -46
-9 0 -21 59 -21 100 1 41 19 1 24 -54z m-314 44 c0 -21 -24 -28 -35 -10 -3 6
-16 10 -28 11 -20 1 -20 2 3 9 44 14 60 11 60 -10z m274 4 c3 -9 6 -32 6 -51
0 -29 -3 -33 -13 -24 -8 6 -18 7 -22 3 -5 -4 -5 -2 -1 5 3 6 2 14 -4 18 -5 3
-10 19 -10 36 0 22 5 29 19 29 10 0 22 -7 25 -16z m1941 -3 c-3 -6 -11 -8 -17
-5 -6 4 -5 9 3 15 16 10 23 4 14 -10z m-34 -15 c-1 -3 -3 -5 -5 -3 -2 1 -13
-6 -24 -16 -16 -15 -21 -16 -31 -3 -10 12 -9 14 7 10 10 -3 24 2 32 11 12 14
23 15 21 1z m239 -1 c16 -9 19 -14 9 -15 -8 0 -24 7 -35 15 -24 18 -7 19 26 0z
m-323 -40 c0 -8 -4 -12 -9 -9 -5 3 -6 10 -3 15 9 13 12 11 12 -6z m-299 -12
c-10 -2 -28 -2 -40 0 -13 2 -5 4 17 4 22 1 32 -1 23 -4z m70 -10 c-10 -2 -26
-2 -35 0 -10 3 -2 5 17 5 19 0 27 -2 18 -5z m177 -2 c-10 -10 -85 -11 -85 -2
0 6 19 10 45 9 24 -1 42 -4 40 -7z m1634 -10 c17 -11 7 -41 -14 -41 -9 0 -15
9 -15 25 0 27 6 30 29 16z m-3407 -40 c3 -18 0 -32 -8 -35 -17 -7 -24 3 -24
34 0 50 25 50 32 1z m1100 23 c-12 -8 -19 -20 -16 -26 4 -6 2 -8 -4 -4 -6 3
-13 2 -17 -4 -4 -6 5 -10 19 -10 34 0 34 -24 0 -46 -29 -20 -52 -7 -39 23 5
10 8 28 8 40 0 12 4 20 8 17 5 -3 9 -1 9 5 0 5 8 12 18 14 33 9 36 7 14 -9z
m-1905 0 c-3 -3 -12 -4 -19 -1 -8 3 -5 6 6 6 11 1 17 -2 13 -5z m824 -128 c2
-24 1 -42 -3 -40 -4 2 -10 -1 -14 -7 -11 -18 -24 11 -24 54 0 30 4 37 19 37
15 0 20 -9 22 -44z m37 -31 l0 -40 -9 40 c-4 22 -8 49 -8 60 l0 20 9 -20 c5
-11 8 -38 8 -60z m3292 45 c0 -23 -4 -30 -20 -30 -16 0 -20 7 -20 30 0 23 4
30 20 30 16 0 20 -7 20 -30z m-3122 -10 c-1 -16 -3 -30 -3 -30 -1 0 -11 14
-23 30 l-23 30 26 0 c22 0 25 -4 23 -30z m876 11 c-15 -15 -74 -24 -74 -12 0
6 10 11 23 11 12 0 29 4 37 10 17 10 28 4 14 -9z m2296 -12 c0 -10 -4 -19 -10
-19 -5 0 -10 12 -10 26 0 14 4 23 10 19 6 -3 10 -15 10 -26z m-3433 -57 c1
-32 5 -112 9 -179 5 -88 4 -123 -4 -123 -7 0 -14 10 -16 23 -7 34 -15 320 -9
335 9 25 18 0 20 -56z m3313 58 c0 -5 -5 -10 -11 -10 -5 0 -7 5 -4 10 3 6 8
10 11 10 2 0 4 -4 4 -10z m-2190 -40 c-8 -6 -25 -10 -38 -10 -13 0 -20 -4 -17
-10 3 -5 1 -10 -5 -10 -24 0 -3 24 31 35 36 13 53 10 29 -5z m2938 3 c-15 -2
-42 -2 -60 0 -18 2 -6 4 27 4 33 0 48 -2 33 -4z m-723 -23 c-6 -19 -2 -20 69
-20 54 0 79 4 90 16 15 15 56 12 56 -4 0 -4 14 -7 32 -7 17 0 33 -6 36 -13 3
-11 -29 -12 -176 -8 -100 4 -188 9 -196 12 -9 3 -16 15 -16 25 0 16 8 19 56
19 51 0 55 -2 49 -20z m-2220 -20 c-10 -11 -13 -20 -7 -20 7 0 12 -4 12 -9 0
-5 -10 -7 -22 -4 -52 11 -54 14 -18 33 46 25 57 25 35 0z m-1088 -12 c-3 -8
-6 -5 -6 6 -1 11 2 17 5 13 3 -3 4 -12 1 -19z m3686 -5 c-13 -2 -33 -2 -45 0
-13 2 -3 4 22 4 25 0 35 -2 23 -4z m-335 -25 c-7 -20 -48 -23 -48 -4 0 11 9
16 26 16 16 0 24 -5 22 -12z m55 -5 c-7 -2 -19 -2 -25 0 -7 3 -2 5 12 5 14 0
19 -2 13 -5z m187 -57 c0 -66 -14 -92 -39 -77 -19 12 4 141 25 141 11 0 14
-16 14 -64z m-2502 29 c2 -17 -5 -23 -38 -31 -36 -10 -40 -9 -40 7 0 45 72 67
78 24z m-1076 -47 c2 -20 0 -34 -4 -32 -4 3 -8 24 -7 47 1 47 6 41 11 -15z
m3735 0 c-3 -7 -5 -2 -5 12 0 14 2 19 5 13 2 -7 2 -19 0 -25z m-2685 -18 c-12
-12 -22 -25 -22 -30 0 -6 -7 -10 -15 -10 -21 0 -19 -18 3 -22 14 -3 13 -5 -5
-10 -18 -5 -23 -2 -23 14 0 28 41 77 64 77 19 1 19 0 -2 -19z m2435 -36 c-3
-3 -12 -4 -19 -1 -8 3 -5 6 6 6 11 1 17 -2 13 -5z m-2419 -38 c2 -11 -8 -21
-32 -31 -44 -19 -46 -19 -46 0 0 9 9 15 23 15 12 0 29 5 37 10 13 9 13 11 0
21 -13 9 -13 10 0 6 8 -2 16 -11 18 -21z m2497 -7 c2 -8 -3 -26 -11 -40 -14
-25 -15 -22 -19 34 -1 20 2 27 13 25 8 -2 16 -10 17 -19z m-2501 -55 c4 -12 1
-14 -14 -9 -10 3 -28 1 -40 -5 -25 -13 -28 5 -2 19 25 15 49 13 56 -5z m-14
-49 c-16 -20 -56 -19 -64 1 -4 12 -1 14 14 9 11 -3 28 -2 37 4 23 12 29 6 13
-14z m-7 -39 c28 -1 20 -31 -9 -34 -15 -1 -33 -7 -40 -13 -11 -9 -14 -7 -14 9
0 36 11 54 29 46 9 -4 24 -7 34 -8z m-1086 -42 c-3 -3 -12 -4 -19 -1 -8 3 -5
6 6 6 11 1 17 -2 13 -5z m90 -10 c-3 -3 -12 -4 -19 -1 -8 3 -5 6 6 6 11 1 17
-2 13 -5z m-95 -26 c-9 -9 -15 -9 -24 0 -9 9 -7 12 12 12 19 0 21 -3 12 -12z
m1108 -43 c0 -30 -4 -55 -10 -55 -5 0 -10 -7 -10 -16 0 -8 5 -12 10 -9 6 3 10
1 10 -6 0 -8 -10 -9 -32 -5 -44 9 -45 12 -9 41 41 35 40 49 -2 31 -28 -11 -34
-11 -34 0 0 7 15 18 34 25 33 11 44 33 21 42 -8 3 -6 6 5 6 14 1 17 -8 17 -54z
m-1020 41 c0 -11 -19 -15 -25 -6 -3 5 1 10 9 10 9 0 16 -2 16 -4z m-85 -26 c4
-6 -5 -10 -20 -10 -15 0 -24 4 -20 10 3 6 12 10 20 10 8 0 17 -4 20 -10z m42
-6 c-3 -3 -12 -4 -19 -1 -8 3 -5 6 6 6 11 1 17 -2 13 -5z m13 -34 c0 -12 -47
-12 -75 0 -15 6 -8 9 28 9 26 1 47 -3 47 -9z m38 -8 c2 -7 -3 -12 -12 -12 -9
0 -16 7 -16 16 0 17 22 14 28 -4z m-153 -21 c-3 -6 -11 -8 -17 -5 -6 4 -5 9 3
15 16 10 23 4 14 -10z m105 -7 c0 -13 -6 -15 -27 -9 -46 11 -51 25 -10 25 27
0 37 -4 37 -16z m50 -4 c0 -5 -7 -10 -15 -10 -8 0 -15 5 -15 10 0 6 7 10 15
10 8 0 15 -4 15 -10z m-250 -10 c0 -5 -13 -10 -29 -10 -17 0 -33 5 -36 10 -4
6 8 10 29 10 20 0 36 -4 36 -10z m50 -5 c0 -8 -6 -15 -14 -15 -17 0 -28 14
-19 24 12 12 33 6 33 -9z m3893 8 c-7 -2 -19 -2 -25 0 -7 3 -2 5 12 5 14 0 19
-2 13 -5z m-3835 -15 c-3 -7 -11 -13 -18 -13 -7 0 -15 6 -17 13 -3 7 4 12 17
12 13 0 20 -5 18 -12z m-208 -19 c0 -5 -7 -9 -15 -9 -15 0 -20 12 -9 23 8 8
24 -1 24 -14z m-53 5 c-3 -3 -12 -4 -19 -1 -8 3 -5 6 6 6 11 1 17 -2 13 -5z
m131 0 c12 -4 22 -11 22 -16 0 -14 -83 -5 -88 10 -4 13 27 16 66 6z m70 -25
c3 -12 2 -12 -6 0 -8 11 -10 11 -15 0 -4 -10 -6 -8 -6 4 -1 21 21 18 27 -4z
m1212 -15 c0 -35 -1 -35 -32 -29 -26 6 -30 5 -25 -9 4 -9 2 -16 -3 -16 -6 0
-10 14 -10 31 0 29 2 30 31 24 28 -6 30 -5 24 14 -4 12 -2 21 4 21 6 0 11 -16
11 -36z m2930 26 c13 -9 13 -10 0 -9 -8 0 -24 4 -35 9 l-20 9 20 0 c11 0 27
-4 35 -9z m-325 -34 c0 -16 -6 -31 -12 -33 -9 -3 -13 6 -13 25 0 17 -6 33 -12
36 -7 3 -2 4 12 3 20 -2 25 -7 25 -31z m139 8 c23 -9 23 -169 1 -178 -21 -8
-109 5 -117 17 -9 14 3 121 14 128 5 3 21 4 35 1 21 -4 25 -2 20 11 -9 25 12
35 47 21z m56 -104 c0 -44 -3 -80 -7 -80 -5 0 -8 24 -7 53 2 83 4 107 9 107 3
0 5 -36 5 -80z m99 69 c17 -6 32 -18 32 -27 3 -30 -2 -126 -5 -130 -2 -2 -24
0 -49 3 l-45 7 3 51 c2 29 4 64 4 80 1 30 11 33 60 16z m-2899 -32 c0 -6 -16
-17 -35 -23 -32 -10 -35 -9 -35 8 0 11 4 16 10 13 5 -3 18 -1 27 4 24 14 33
13 33 -2z m-9 -66 c-10 -17 -9 -20 4 -15 10 4 13 2 10 -8 -3 -8 -21 -20 -40
-26 -34 -10 -35 -9 -35 18 0 29 23 56 39 46 5 -4 13 -1 16 5 12 19 17 1 6 -20z
m-1591 -41 c0 -11 -4 -20 -10 -20 -5 0 -10 9 -10 20 0 11 5 20 10 20 6 0 10
-9 10 -20z m1586 -47 c-11 -11 -19 6 -11 24 8 17 8 17 12 0 3 -10 2 -21 -1
-24z m2734 10 l33 -6 -7 -134 c-8 -152 -11 -163 -38 -163 -10 0 -16 5 -13 10
3 6 -4 11 -17 11 -13 1 -30 2 -38 3 -12 1 -16 26 -18 144 l-3 142 34 0 c19 0
49 -3 67 -7z m70 -30 c0 -21 -3 -24 -9 -14 -5 8 -7 20 -4 28 8 21 13 15 13
-14z m126 14 c1 -1 4 -13 6 -27 3 -24 1 -25 -47 -21 -27 1 -51 4 -53 6 -2 1 0
15 4 30 6 25 9 27 47 21 23 -4 42 -8 43 -9z m-2913 -29 c7 -10 5 -24 -5 -45
-12 -24 -12 -31 -1 -41 7 -7 13 -27 13 -44 0 -17 -3 -29 -6 -25 -4 3 -19 0
-35 -9 -29 -14 -29 -14 -29 14 0 15 7 37 15 49 13 19 13 22 0 27 -21 8 -19 26
3 26 19 0 42 18 42 32 0 12 -35 9 -48 -4 -8 -8 -12 -9 -12 -1 0 16 30 45 43
40 6 -2 15 -10 20 -19z m2787 -58 c0 -16 -4 -30 -8 -30 -4 0 -9 14 -10 30 -1
17 2 30 8 30 5 0 10 -13 10 -30z m105 15 c20 -4 25 -11 25 -36 0 -30 -2 -31
-31 -25 -17 3 -40 6 -50 6 -15 0 -19 7 -19 35 0 32 2 35 25 30 14 -3 36 -7 50
-10z m-109 -97 c-3 -13 -6 -44 -6 -70 0 -27 -4 -48 -9 -48 -6 0 -8 10 -6 22 3
13 6 44 6 70 1 27 6 48 12 48 5 0 7 -10 3 -22z m74 1 c0 -6 7 -8 15 -5 8 3 22
9 30 12 11 5 15 -1 15 -25 0 -36 -37 -66 -74 -59 -19 4 -23 1 -19 -11 4 -14 3
-14 -6 -1 -6 8 -10 34 -9 58 1 37 5 42 25 42 13 0 23 -5 23 -11z m129 4 l23
-6 -23 -13 c-33 -18 -39 -17 -39 6 0 22 3 23 39 13z m-4565 -114 c4 -45 5 -83
3 -85 -8 -8 -111 17 -119 29 -4 6 -8 31 -8 55 0 41 1 42 33 42 20 0 39 8 50
20 9 11 21 20 25 20 5 0 12 -37 16 -81z m1586 43 c0 -24 -5 -39 -12 -39 -7 0
-20 -4 -29 -7 -10 -5 -19 -2 -22 7 -4 10 4 17 25 21 26 5 29 9 24 31 -4 14 -2
25 4 25 5 0 10 -17 10 -38z m2900 -42 c0 -12 -7 -20 -17 -20 -15 0 -16 2 -3
10 11 7 11 10 2 10 -7 0 -10 5 -7 10 10 17 25 11 25 -10z m-4660 -26 c0 -24
-3 -25 -27 -19 -38 9 -41 14 -19 31 30 21 46 17 46 -12z m4710 17 c0 -5 8 -12
18 -14 10 -3 6 -5 -10 -6 -19 -1 -28 4 -28 14 0 8 5 15 10 15 6 0 10 -4 10 -9z
m-2950 -15 c0 -8 -13 -21 -30 -30 -28 -13 -30 -13 -30 3 0 9 12 22 28 28 15 6
28 11 30 12 1 1 2 -5 2 -13z m2637 8 c-3 -3 -12 -4 -19 -1 -8 3 -5 6 6 6 11 1
17 -2 13 -5z m90 -10 c-3 -3 -12 -4 -19 -1 -8 3 -5 6 6 6 11 1 17 -2 13 -5z
m-76 -24 c20 0 7 -18 -17 -24 -31 -8 -39 -3 -30 20 4 10 12 14 22 10 9 -3 20
-6 25 -6z m-3981 -60 c0 -21 -4 -41 -9 -44 -9 -6 -23 73 -15 86 11 18 24 -5
24 -42z m4092 -49 c-2 -45 -8 -81 -13 -81 -10 0 -12 66 -3 134 10 71 19 39 16
-53z m-2783 53 l-22 -36 21 7 c15 4 22 2 22 -6 0 -7 -3 -9 -7 -6 -3 4 -17 0
-30 -8 -21 -14 -23 -14 -23 3 0 10 6 24 13 31 10 11 9 15 -2 19 -10 3 -7 8 10
18 38 21 42 16 18 -22z m2734 -63 l-6 -73 -30 6 c-16 3 -40 6 -54 6 -23 0 -24
3 -21 48 2 38 7 49 26 57 12 5 22 13 22 17 0 5 9 8 19 8 11 0 23 5 27 11 15
25 23 -11 17 -80z m-4083 43 c0 -19 -5 -24 -24 -24 -35 0 -41 17 -14 39 27 23
38 19 38 -15z m4233 19 c26 -5 27 -8 27 -68 0 -73 -9 -84 -64 -77 -26 3 -34 7
-25 13 10 6 11 9 2 9 -9 0 -13 18 -13 56 0 38 3 53 11 48 8 -4 9 1 4 16 -6 20
-5 22 11 16 11 -4 31 -10 47 -13z m-2863 -91 c0 -33 -4 -39 -30 -49 -30 -11
-30 -11 -30 22 0 19 5 37 12 41 7 5 8 3 3 -6 -6 -10 -4 -12 8 -7 9 3 18 1 21
-6 4 -7 4 0 2 16 -2 15 1 27 5 27 5 0 9 -17 9 -38z m0 -95 c0 -27 -5 -35 -30
-44 -30 -11 -30 -11 -30 22 0 22 6 38 18 44 31 18 42 12 42 -22z m2705 -2 c17
-1 33 -3 38 -4 13 -2 8 -111 -5 -116 -7 -3 -42 -1 -78 3 l-65 7 0 50 c-1 73 2
78 44 70 20 -3 50 -8 66 -10z m-2715 -110 c0 -4 -7 -20 -16 -37 -15 -28 -15
-30 0 -25 26 10 18 -7 -10 -20 -24 -11 -26 -11 -20 12 3 13 9 31 13 41 4 12 3
15 -5 10 -7 -4 -12 -3 -12 3 0 5 8 12 18 14 27 7 32 7 32 2z m2754 -88 c-3
-139 -7 -180 -14 -157 -4 14 -8 40 -9 58 -1 18 -10 53 -21 78 -24 52 -20 65
18 55 21 -6 27 -13 26 -34z m118 -1 c6 -11 10 -21 9 -21 -1 0 0 -7 3 -15 2 -8
10 -33 16 -55 6 -22 15 -49 20 -60 14 -30 60 -172 60 -184 0 -5 -10 -13 -22
-17 -20 -6 -20 -8 -5 -19 9 -7 17 -15 17 -19 0 -12 -21 -5 -40 14 -11 11 -15
20 -10 20 6 0 10 9 10 19 0 12 -7 18 -17 17 -14 -1 -25 21 -51 96 -18 54 -33
116 -35 138 -1 22 -5 40 -8 40 -3 0 -10 16 -16 35 -8 24 -8 35 0 38 23 7 58
-6 69 -27z m92 -1 c25 -26 36 -84 36 -195 -1 -99 -2 -103 -16 -78 -12 24 -21
76 -24 136 0 7 -3 11 -8 8 -4 -2 -19 29 -34 70 l-26 74 28 0 c16 0 35 -7 44
-15z m43 -27 c-3 -7 -5 -2 -5 12 0 14 2 19 5 13 2 -7 2 -19 0 -25z m-3011 -22
c-1 -39 -3 -43 -18 -35 -10 5 -18 14 -18 20 0 9 29 59 35 59 1 0 1 -20 1 -44z
m2853 -197 l20 -70 -47 3 -47 3 2 95 c1 52 5 106 9 120 6 22 8 20 25 -28 10
-29 27 -85 38 -123z m-2852 97 c1 -26 -4 -35 -18 -39 -16 -4 -18 -1 -13 19 4
16 2 24 -7 24 -8 0 -5 6 7 15 27 21 30 19 31 -19z m-17 -111 c0 14 20 -17 20
-32 0 -7 -9 -17 -20 -23 -19 -10 -20 -8 -20 32 0 32 3 39 10 28 5 -8 10 -10
10 -5z m20 -89 c0 -8 -7 -16 -15 -20 -15 -5 -21 14 -8 27 11 12 23 8 23 -7z
m2863 -74 c9 -8 17 -22 17 -30 0 -13 -3 -12 -19 2 -11 10 -24 15 -29 12 -9 -6
-22 15 -22 35 0 11 30 0 53 -19z m-2866 -7 c-4 -8 -11 -15 -17 -15 -14 0 -13
27 3 33 16 6 21 1 14 -18z m2923 -69 c-1 -21 -1 -21 -15 -2 -21 27 -20 53 0
36 8 -7 15 -22 15 -34z m-241 -32 c8 -7 -54 -2 -79 6 -17 6 -9 7 25 3 28 -3
52 -7 54 -9z m-2685 -15 c-6 -11 -24 -2 -24 11 0 5 7 7 15 4 8 -4 12 -10 9
-15z m6 -24 c0 -7 -7 -18 -15 -25 -13 -10 -15 -9 -15 12 0 15 6 25 15 25 8 0
15 -6 15 -12z m2685 -3 c-3 -3 -11 0 -18 7 -9 10 -8 11 6 5 10 -3 15 -9 12
-12z m-4045 -52 c0 -5 -2 -10 -4 -10 -3 0 -8 5 -11 10 -3 6 -1 10 4 10 6 0 11
-4 11 -10z m1357 -22 c-3 -7 -5 -2 -5 12 0 14 2 19 5 13 2 -7 2 -19 0 -25z
m2718 14 c-3 -3 -11 0 -18 7 -9 10 -8 11 6 5 10 -3 15 -9 12 -12z m-4045 -2
c0 -5 -2 -10 -4 -10 -3 0 -8 5 -11 10 -3 6 -1 10 4 10 6 0 11 -4 11 -10z
m4235 -22 c7 -16 19 -23 39 -23 30 0 44 -19 45 -62 1 -18 -5 -23 -24 -23 -14
0 -25 3 -25 8 0 4 -11 20 -25 36 -14 16 -25 35 -25 42 0 7 -3 19 -6 28 -10 25
10 19 21 -6z m-413 -18 c3 -17 0 -30 -6 -31 -6 0 -5 -3 2 -6 13 -5 17 -43 5
-43 -21 1 -31 19 -31 63 -1 54 23 68 30 17z m55 -2 c-3 -8 -6 -5 -6 6 -1 11 2
17 5 13 3 -3 4 -12 1 -19z m33 8 c0 -3 -4 -8 -10 -11 -5 -3 -10 -1 -10 4 0 6
5 11 10 11 6 0 10 -2 10 -4z m-4279 -17 c51 -16 42 -39 -15 -39 -50 0 -90 24
-66 40 19 13 34 12 81 -1z m4478 -39 c0 -10 -3 -8 -9 5 -12 27 -12 43 0 25 5
-8 9 -22 9 -30z m-2779 16 c0 -8 -4 -18 -10 -21 -5 -3 -10 3 -10 14 0 12 5 21
10 21 6 0 10 -6 10 -14z m-1575 -16 c3 -5 -3 -10 -15 -10 -12 0 -18 5 -15 10
3 6 10 10 15 10 5 0 12 -4 15 -10z m4178 -29 c9 -1 17 -6 17 -12 0 -5 -4 -8
-8 -5 -5 3 -25 6 -45 8 -21 1 -37 5 -37 9 0 4 12 6 28 4 15 -2 35 -4 45 -4z
m-4233 -15 c0 -11 -19 -15 -25 -6 -3 5 1 10 9 10 9 0 16 -2 16 -4z m4307 -2
c-3 -3 -12 -4 -19 -1 -8 3 -5 6 6 6 11 1 17 -2 13 -5z m-2682 -14 c3 -5 1 -10
-4 -10 -6 0 -11 5 -11 10 0 6 2 10 4 10 3 0 8 -4 11 -10z m2822 -6 c-3 -3 -12
-4 -19 -1 -8 3 -5 6 6 6 11 1 17 -2 13 -5z"/>
<path d="M4439 4712 c-12 -42 -6 -83 11 -66 10 11 17 91 8 100 -4 3 -12 -12
-19 -34z"/>
<path d="M4427 4403 c-4 -3 -7 -13 -7 -22 1 -13 3 -13 11 2 11 19 8 33 -4 20z"/>
<path d="M4421 4344 c0 -11 3 -14 6 -6 3 7 2 16 -1 19 -3 4 -6 -2 -5 -13z"/>
<path d="M1722 4635 c0 -16 2 -22 5 -12 2 9 2 23 0 30 -3 6 -5 -1 -5 -18z"/>
<path d="M1803 4500 c0 -41 2 -58 4 -37 2 20 2 54 0 75 -2 20 -4 3 -4 -38z"/>
<path d="M1814 4335 c0 -49 1 -71 3 -48 2 23 2 64 0 90 -2 26 -3 8 -3 -42z"/>
<path d="M746 3645 c-9 -26 -7 -32 5 -12 6 10 9 21 6 23 -2 3 -7 -2 -11 -11z"/>
<path d="M4593 3951 c-13 -21 13 -70 38 -71 10 0 32 58 25 68 -11 18 -53 19
-63 3z"/>
<path d="M661 3474 c0 -11 3 -14 6 -6 3 7 2 16 -1 19 -3 4 -6 -2 -5 -13z"/>
<path d="M765 3480 c3 -5 8 -10 11 -10 2 0 4 5 4 10 0 6 -5 10 -11 10 -5 0 -7
-4 -4 -10z"/>
<path d="M482 3455 c0 -16 2 -22 5 -12 2 9 2 23 0 30 -3 6 -5 -1 -5 -18z"/>
<path d="M2378 2573 c-10 -2 -18 -9 -18 -14 0 -15 43 -7 48 9 4 12 0 13 -30 5z"/>
<path d="M2335 2350 c-8 -13 25 -13 45 0 12 8 9 10 -12 10 -15 0 -30 -4 -33
-10z"/>
<path d="M2315 2060 c-3 -5 1 -10 10 -10 9 0 13 5 10 10 -3 6 -8 10 -10 10 -2
0 -7 -4 -10 -10z"/>
<path d="M2320 1650 c0 -5 4 -10 9 -10 6 0 13 5 16 10 3 6 -1 10 -9 10 -9 0
-16 -4 -16 -10z"/>
<path d="M2342 1428 c-20 -20 -13 -28 13 -16 14 6 25 15 25 20 0 12 -24 10
-38 -4z"/>
<path d="M5190 1119 c0 -9 27 -19 51 -19 10 0 19 7 19 15 0 12 -9 15 -35 13
-19 -1 -35 -5 -35 -9z"/>
<path d="M2360 999 c0 -5 5 -7 10 -4 6 3 10 8 10 11 0 2 -4 4 -10 4 -5 0 -10
-5 -10 -11z"/>
<path d="M5289 514 c-11 -14 -10 -15 11 -12 13 1 25 9 28 16 5 17 -23 15 -39
-4z"/>
<path d="M5355 690 c-3 -5 -1 -18 4 -27 9 -15 10 -14 9 10 -3 30 -4 32 -13 17z"/>
<path d="M4838 5351 c4 -27 5 -28 21 -13 12 12 15 21 8 30 -18 23 -34 13 -29
-17z"/>
<path d="M4990 5300 c-9 -6 -10 -10 -3 -10 6 0 15 5 18 10 8 12 4 12 -15 0z"/>
<path d="M4460 5220 c-9 -6 -10 -10 -3 -10 6 0 15 5 18 10 8 12 4 12 -15 0z"/>
<path d="M5324 4484 c-24 -10 7 -61 43 -72 l33 -10 0 44 c0 43 -1 44 -32 43
-18 0 -38 -3 -44 -5z"/>
<path d="M3288 3753 c7 -3 16 -2 19 1 4 3 -2 6 -13 5 -11 0 -14 -3 -6 -6z"/>
<path d="M2628 3693 c7 -3 16 -2 19 1 4 3 -2 6 -13 5 -11 0 -14 -3 -6 -6z"/>
<path d="M0 3649 c0 -5 5 -7 10 -4 5 3 10 8 10 11 0 2 -4 4 -10 4 -5 0 -10 -5
-10 -11z"/>
<path d="M3115 3560 c-3 -5 -1 -10 4 -10 6 0 11 5 11 10 0 6 -2 10 -4 10 -3 0
-8 -4 -11 -10z"/>
<path d="M3050 3549 c0 -5 5 -7 10 -4 6 3 10 8 10 11 0 2 -4 4 -10 4 -5 0 -10
-5 -10 -11z"/>
<path d="M2955 3540 c-3 -5 -1 -10 4 -10 6 0 11 5 11 10 0 6 -2 10 -4 10 -3 0
-8 -4 -11 -10z"/>
<path d="M2980 3539 c0 -5 5 -7 10 -4 6 3 10 8 10 11 0 2 -4 4 -10 4 -5 0 -10
-5 -10 -11z"/>
<path d="M2920 3529 c0 -5 5 -7 10 -4 6 3 10 8 10 11 0 2 -4 4 -10 4 -5 0 -10
-5 -10 -11z"/>
<path d="M3422 3470 c0 -19 2 -27 5 -17 2 9 2 25 0 35 -3 9 -5 1 -5 -18z"/>
<path d="M3448 3467 c-3 -19 -2 -25 4 -19 6 6 8 18 6 28 -3 14 -5 12 -10 -9z"/>
<path d="M3472 3460 c0 -14 2 -19 5 -12 2 6 2 18 0 25 -3 6 -5 1 -5 -13z"/>
<path d="M4624 3225 c0 -88 2 -123 3 -77 2 46 2 118 0 160 -1 42 -3 5 -3 -83z"/>
<path d="M3573 3219 c-25 -9 -30 -19 -10 -19 15 0 43 17 37 23 -3 3 -15 1 -27
-4z"/>
<path d="M150 3174 c0 -8 5 -12 10 -9 6 3 10 10 10 16 0 5 -4 9 -10 9 -5 0
-10 -7 -10 -16z"/>
<path d="M3530 3180 c20 -13 33 -13 25 0 -3 6 -14 10 -23 10 -15 0 -15 -2 -2
-10z"/>
<path d="M3832 3088 c-6 -6 -34 -11 -61 -9 -55 2 -76 -14 -36 -29 36 -14 68
-13 59 2 -4 7 -3 8 4 4 12 -7 60 30 51 39 -3 2 -11 -1 -17 -7z"/>
<path d="M3607 2979 l-57 -51 27 -21 c27 -22 123 -57 155 -57 21 0 134 -36
161 -51 21 -11 60 -2 51 12 -3 5 -10 7 -15 3 -14 -8 -39 15 -39 37 0 12 -10
23 -25 29 -14 5 -30 21 -35 35 -5 14 -14 25 -20 25 -6 0 -36 20 -67 45 -30 25
-60 45 -67 45 -7 0 -38 -23 -69 -51z"/>
<path d="M4613 2920 c0 -25 2 -35 4 -22 2 12 2 32 0 45 -2 12 -4 2 -4 -23z"/>
<path d="M3300 2892 c-103 -50 -175 -81 -202 -88 -16 -3 -28 -11 -28 -16 0 -6
8 -7 18 -3 9 4 27 7 40 6 28 -1 135 53 125 64 -5 4 0 5 9 2 10 -3 20 -1 24 4
3 6 22 17 40 25 19 8 34 19 34 24 0 6 -1 10 -2 9 -2 0 -28 -13 -58 -27z"/>
<path d="M3508 2899 c-24 -14 -22 -36 7 -84 32 -52 32 -101 -2 -190 -45 -121
-113 -325 -149 -450 -40 -134 -83 -282 -89 -305 -22 -81 -47 -167 -65 -225
-12 -38 -28 -90 -35 -115 -27 -93 -99 -288 -155 -419 -31 -75 -84 -203 -116
-285 -53 -134 -60 -145 -64 -115 -3 20 -8 29 -13 22 -4 -6 -2 -24 3 -39 10
-24 1 -53 -60 -218 -86 -231 -137 -358 -162 -408 -29 -59 -25 -68 30 -68 l47
0 0 39 c0 34 -1 37 -13 22 -12 -14 -13 -14 -9 7 3 12 1 22 -4 22 -5 0 -9 -5
-9 -12 0 -6 -2 -9 -5 -7 -2 3 2 25 9 49 8 28 15 39 19 30 4 -8 4 -4 1 9 -4 16
-2 21 5 17 7 -4 9 -1 5 8 -8 22 6 42 17 25 7 -11 9 -11 9 1 0 13 1 13 10 0 8
-13 10 -12 10 4 0 12 -5 16 -15 12 -10 -4 -15 1 -15 15 0 11 4 18 8 15 5 -3 9
7 10 22 1 35 29 103 51 120 9 7 10 11 4 7 -17 -8 -16 6 2 31 8 12 11 24 8 28
-3 3 -1 6 6 6 9 0 11 -6 6 -17 -4 -10 -10 -24 -13 -32 -3 -8 -1 -12 4 -9 5 4
10 -5 10 -18 1 -15 -2 -22 -10 -18 -6 3 -2 -2 8 -10 11 -9 15 -16 9 -16 -11 0
-25 -29 -28 -55 -2 -13 -14 -45 -27 -69 -7 -13 -6 -21 3 -26 21 -14 41 1 35
26 -3 12 -1 26 5 29 6 4 8 13 5 21 -6 16 12 18 33 5 9 -6 19 -5 28 2 34 29 43
39 43 50 0 7 -5 4 -11 -5 -5 -10 -15 -18 -22 -18 -7 0 1 12 17 26 15 14 32 39
36 57 7 26 64 236 74 272 8 30 25 94 30 118 6 25 4 27 -24 27 -20 0 -30 -5
-30 -15 0 -8 -5 -15 -11 -15 -7 0 -9 -10 -5 -24 3 -14 2 -28 -4 -31 -6 -3 -10
4 -10 17 0 13 -5 30 -10 38 -7 10 -8 4 -4 -20 4 -25 1 -40 -9 -49 -13 -10 -15
-9 -10 11 4 18 2 20 -6 8 -18 -26 -24 -2 -7 31 9 18 16 38 16 45 0 7 7 19 15
28 9 8 15 19 15 23 -3 17 17 11 43 -13 22 -20 31 -23 42 -14 8 6 19 9 24 6 6
-4 8 11 6 39 -2 25 0 43 5 40 5 -3 11 -1 15 5 14 23 33 8 39 -31 6 -37 9 -40
33 -37 21 2 29 10 35 36 5 17 13 32 19 32 6 0 8 4 5 8 -2 4 4 19 15 32 16 21
20 23 29 10 6 -10 10 -11 10 -2 0 6 6 12 13 12 6 0 30 14 51 30 25 19 57 32
90 37 l51 7 -35 7 c-19 4 -36 5 -37 1 -4 -9 -116 -2 -127 8 -4 4 1 11 12 14
16 5 19 14 18 47 -1 22 1 42 6 45 4 3 8 0 8 -7 0 -7 7 -21 17 -31 9 -10 13
-21 9 -25 -4 -4 -12 -1 -17 7 -8 12 -9 11 -7 -5 2 -12 11 -20 23 -20 14 0 19
6 17 20 -2 11 -4 35 -5 53 -2 27 -5 32 -21 28 -11 -3 -28 -1 -38 5 -14 7 -20
6 -24 -6 -5 -13 -9 -13 -22 -3 -13 11 -14 11 -8 0 6 -9 1 -12 -17 -8 -24 4
-24 4 -15 -52 11 -75 15 -85 30 -76 9 5 9 3 -1 -9 -7 -9 -26 -17 -41 -17 -27
0 -27 0 -28 74 -1 73 12 107 37 92 5 -3 11 -1 13 4 2 6 20 12 40 13 20 1 34 5
32 8 -2 3 40 14 94 23 122 22 128 24 70 25 -26 1 -58 -3 -72 -9 -14 -5 -47
-12 -74 -14 -26 -3 -60 -10 -75 -15 -16 -6 -39 -11 -52 -11 -19 0 -22 4 -18
21 4 15 8 17 14 8 4 -7 5 5 2 28 -6 48 49 240 75 260 11 8 12 12 5 13 -7 0
-13 4 -13 10 0 5 7 7 15 4 10 -4 15 0 15 11 0 9 -5 13 -10 10 -7 -4 -9 2 -5
17 3 13 7 41 8 61 1 20 4 37 7 37 3 0 5 17 4 37 0 20 3 49 7 63 18 58 88 318
98 360 5 25 17 65 26 90 46 132 129 383 144 440 17 65 25 67 41 12 6 -19 9 -3
9 56 1 58 -2 81 -11 80 -6 -2 -20 14 -30 35 -19 40 -24 42 -50 26z m-358
-1748 c0 -17 -4 -33 -10 -36 -6 -4 -10 8 -10 29 0 20 5 36 10 36 6 0 10 -13
10 -29z m87 -43 c-3 -7 -5 -2 -5 12 0 14 2 19 5 13 2 -7 2 -19 0 -25z m-274
-193 c-3 -9 -8 -14 -10 -11 -3 3 -2 9 2 15 9 16 15 13 8 -4z m-166 -607 c-3
-8 -6 -5 -6 6 -1 11 2 17 5 13 3 -3 4 -12 1 -19z"/>
<path d="M2836 2875 c-15 -14 -34 -25 -42 -25 -7 0 -14 -9 -14 -20 0 -11 5
-20 10 -20 6 0 10 -7 10 -15 0 -12 14 -15 63 -15 50 0 66 4 80 20 57 67 -41
136 -107 75z"/>
<path d="M3591 2624 c0 -11 3 -14 6 -6 3 7 2 16 -1 19 -3 4 -6 -2 -5 -13z"/>
<path d="M4400 2630 c-12 -8 -9 -10 13 -10 16 0 26 4 22 10 -8 12 -16 12 -35
0z"/>
<path d="M2036 2486 c-10 -19 -18 -38 -16 -42 1 -4 -2 -10 -7 -13 -12 -8 -56
-71 -49 -71 15 0 85 86 84 104 0 12 3 29 7 39 12 29 0 19 -19 -17z"/>
<path d="M3302 2488 c-17 -17 -15 -49 6 -65 16 -13 15 -14 -6 -10 -18 4 -25 0
-33 -19 -14 -39 -11 -54 13 -54 17 0 19 3 10 12 -15 15 -15 28 -1 28 5 0 7 -4
4 -10 -4 -6 5 -10 20 -10 15 0 24 -4 20 -10 -3 -5 1 -10 10 -10 8 0 20 12 25
26 14 36 13 41 -12 40 -19 -1 -23 4 -20 26 2 21 -1 26 -13 22 -8 -3 -15 -2
-15 4 0 14 24 22 49 15 26 -7 27 -28 4 -42 -16 -9 -16 -10 3 -11 34 0 49 62
18 74 -26 10 -69 7 -82 -6z"/>
<path d="M1940 2320 c-6 -11 -8 -20 -6 -20 3 0 10 9 16 20 6 11 8 20 6 20 -3
0 -10 -9 -16 -20z"/>
<path d="M3247 2282 c-25 -28 -21 -60 8 -74 48 -22 110 49 69 79 -25 18 -58
16 -77 -5z m68 -32 c0 -11 -10 -15 -33 -13 -38 1 -47 7 -37 23 10 17 70 8 70
-10z"/>
<path d="M3130 2251 c0 -6 5 -11 11 -11 5 0 8 -4 4 -9 -3 -5 3 -12 12 -14 15
-4 14 -5 -3 -6 -31 -2 -51 -28 -37 -50 9 -14 7 -20 -8 -29 -25 -16 -24 -42 0
-42 11 0 23 -5 27 -11 5 -8 -3 -10 -25 -7 -17 2 -31 1 -31 -4 0 -4 8 -8 18 -8
14 0 12 -4 -8 -20 l-25 -20 40 0 c26 0 35 3 26 9 -11 7 -11 10 1 17 18 11 30
51 14 51 -30 -1 -46 4 -46 13 0 6 14 9 31 8 19 -2 34 2 36 10 3 8 -1 10 -14 6
-13 -5 -12 -2 5 10 12 10 22 26 22 37 0 11 5 29 11 41 13 24 13 24 -28 33 -21
4 -33 3 -33 -4z m35 -70 c3 -5 1 -12 -4 -15 -13 -8 -42 4 -35 15 7 12 31 12
39 0z"/>
<path d="M3207 2180 c-4 -15 0 -20 16 -20 18 0 19 -2 7 -10 -11 -7 -6 -10 20
-10 26 0 31 3 20 10 -13 8 -12 10 3 10 9 0 17 -4 17 -10 0 -5 -8 -14 -17 -19
-17 -10 -16 -10 2 -11 14 0 23 10 31 34 l10 34 -43 0 c-24 1 -48 4 -52 7 -5 2
-11 -4 -14 -15z"/>
<path d="M3982 2175 c0 -16 2 -22 5 -12 2 9 2 23 0 30 -3 6 -5 -1 -5 -18z"/>
<path d="M4610 2131 c0 -6 5 -13 12 -17 6 -4 8 -3 4 4 -3 5 0 13 6 15 8 3 6 6
-4 6 -10 1 -18 -3 -18 -8z"/>
<path d="M3174 2066 c-9 -36 1 -44 50 -44 36 0 45 3 50 21 11 42 -23 51 -61
15 -13 -12 -26 -18 -30 -14 -5 4 0 13 10 20 21 16 22 26 2 26 -8 0 -17 -11
-21 -24z m81 -25 c-3 -6 -11 -11 -17 -11 -6 0 -6 6 2 15 14 17 26 13 15 -4z"/>
<path d="M3960 2028 c-20 -45 -24 -79 -31 -226 -5 -95 -13 -198 -18 -227 -10
-54 -2 -110 29 -190 11 -29 12 -29 26 -10 10 13 13 32 10 55 -20 123 -25 189
-26 301 0 120 1 129 30 185 l29 59 -29 -35 -29 -35 -1 35 c0 19 11 59 25 88
13 28 20 52 16 52 -5 0 -19 -24 -31 -52z"/>
<path d="M4721 2024 c0 -11 3 -14 6 -6 3 7 2 16 -1 19 -3 4 -6 -2 -5 -13z"/>
<path d="M3158 2002 c-4 -15 -2 -19 8 -15 9 3 14 -1 14 -12 0 -9 -9 -19 -20
-22 -11 -3 -20 -12 -20 -19 0 -15 29 -11 84 11 l28 12 -38 24 c-22 12 -42 27
-45 32 -3 5 -9 0 -11 -11z"/>
<path d="M3064 1999 c-3 -5 -6 -27 -7 -49 -1 -22 -5 -40 -9 -40 -4 0 -8 -6 -8
-14 0 -12 6 -12 36 -3 l36 11 -28 23 -29 23 27 0 c25 0 48 23 48 47 0 11 -59
12 -66 2z m36 -19 c12 -8 11 -10 -7 -10 -13 0 -23 5 -23 10 0 13 11 13 30 0z"/>
<path d="M3130 1895 c0 -9 6 -15 13 -14 47 6 50 -3 7 -28 -25 -15 -38 -28 -30
-30 52 -7 90 -8 90 -1 0 4 -10 8 -22 8 -22 0 -22 0 2 17 47 32 52 51 11 45
-16 -2 -38 1 -50 7 -17 10 -21 9 -21 -4z"/>
<path d="M3086 1869 c5 -8 -3 -10 -25 -7 -21 3 -31 0 -31 -9 0 -7 11 -13 26
-13 14 0 23 -4 19 -10 -3 -5 -2 -10 3 -10 5 0 12 10 16 23 8 31 7 37 -5 37 -5
0 -7 -5 -3 -11z"/>
<path d="M2962 1781 c-7 -29 -12 -60 -11 -69 0 -9 7 10 15 42 8 33 13 64 11
69 -2 6 -8 -14 -15 -42z"/>
<path d="M3020 1804 c0 -6 14 -14 30 -16 19 -3 30 0 30 8 0 6 -13 14 -30 16
-19 3 -30 0 -30 -8z"/>
<path d="M3016 1764 c-20 -19 -20 -38 -2 -53 19 -16 45 -3 52 26 10 38 -22 55
-50 27z m44 -25 c0 -5 -11 -9 -25 -9 -26 0 -34 15 -12 23 16 5 37 -3 37 -14z"/>
<path d="M1330 1750 c-9 -6 -10 -10 -3 -10 6 0 15 5 18 10 8 12 4 12 -15 0z"/>
<path d="M3086 1719 c-8 -40 -2 -48 34 -47 33 1 44 10 59 51 l11 27 -49 0
c-46 0 -49 -1 -55 -31z m39 -9 c-3 -5 -13 -10 -21 -10 -8 0 -12 5 -9 10 3 6
13 10 21 10 8 0 12 -4 9 -10z m40 0 c-3 -5 -10 -10 -16 -10 -5 0 -9 5 -9 10 0
6 7 10 16 10 8 0 12 -4 9 -10z"/>
<path d="M2990 1690 c0 -5 5 -10 11 -10 5 0 7 5 4 10 -3 6 -8 10 -11 10 -2 0
-4 -4 -4 -10z"/>
<path d="M3042 1693 c-7 -3 -24 -15 -38 -28 l-24 -23 30 -4 c30 -5 41 6 18 15
-10 4 -10 6 -1 6 7 1 17 10 23 21 6 11 9 20 8 19 -2 0 -9 -3 -16 -6z"/>
<path d="M2940 1688 c0 -3 -7 -43 -16 -88 -8 -45 -13 -84 -11 -86 2 -3 12 34
21 82 10 47 15 88 12 92 -3 3 -6 3 -6 0z"/>
<path d="M982 1665 c7 -8 87 -9 95 -2 3 4 -18 7 -47 7 -29 0 -51 -2 -48 -5z"/>
<path d="M3061 1623 c-14 -48 -14 -53 0 -53 5 0 8 4 5 9 -9 15 5 41 21 41 13
0 13 -3 3 -15 -10 -13 -9 -15 9 -15 14 0 20 -4 15 -11 -4 -7 -1 -10 6 -7 17 5
26 30 10 26 -7 -2 -15 3 -18 11 -3 10 1 13 16 9 14 -4 22 0 25 12 3 13 -1 16
-18 12 -13 -2 -32 1 -43 7 -19 10 -22 7 -31 -26z"/>
<path d="M2975 1620 c-3 -5 -1 -10 4 -10 6 0 11 5 11 10 0 6 -2 10 -4 10 -3 0
-8 -4 -11 -10z"/>
<path d="M3760 1604 c0 -10 5 -26 10 -34 8 -11 9 -7 4 15 -8 37 -14 45 -14 19z"/>
<path d="M1041 1553 c0 -35 2 -63 7 -63 4 0 6 21 4 48 -5 75 -10 82 -11 15z"/>
<path d="M2960 1557 c0 -9 10 -12 30 -9 17 2 30 8 30 13 0 5 -13 9 -30 9 -18
0 -30 -5 -30 -13z"/>
<path d="M3036 1535 c-2 -7 8 -10 28 -7 l31 4 -30 -26 c-16 -14 -33 -25 -37
-26 -5 0 -8 -4 -8 -9 0 -5 18 -11 40 -13 26 -2 40 1 40 8 0 7 -9 10 -22 7 -20
-4 -18 -1 10 22 17 14 32 30 32 35 0 12 -79 17 -84 5z"/>
<path d="M2950 1520 c0 -5 8 -7 18 -3 13 5 11 0 -7 -20 l-24 -27 26 0 c14 0
29 5 33 12 5 7 3 8 -7 3 -8 -5 -7 0 4 12 24 27 22 33 -13 33 -16 0 -30 -4 -30
-10z"/>
<path d="M2902 1480 c0 -14 2 -19 5 -12 2 6 2 18 0 25 -3 6 -5 1 -5 -13z"/>
<path d="M2883 1412 c-2 -28 -9 -51 -18 -58 -19 -14 -20 -44 -2 -44 16 0 43
128 30 141 -4 4 -9 -13 -10 -39z"/>
<path d="M2942 1448 c-17 -17 -15 -33 3 -18 8 6 19 9 25 5 5 -3 10 1 10 9 0
19 -21 21 -38 4z"/>
<path d="M3046 1430 c-54 -7 -60 -30 -8 -30 28 0 42 5 46 16 8 21 9 21 -38 14z"/>
<path d="M2966 1403 c-6 -14 -5 -15 5 -6 7 7 10 15 7 18 -3 3 -9 -2 -12 -12z"/>
<path d="M2986 1345 c-8 -29 -7 -42 2 -27 5 7 22 14 38 15 26 2 43 13 44 27 0
3 -18 5 -39 5 -31 0 -41 -4 -45 -20z"/>
<path d="M3915 1330 c-16 -7 -12 -9 18 -9 23 -1 36 3 32 9 -7 12 -23 12 -50 0z"/>
<path d="M3796 1309 c-38 -10 -77 -27 -87 -38 -10 -10 -24 -21 -31 -24 -7 -2
-10 -7 -7 -11 4 -4 20 5 37 19 29 24 120 55 163 55 11 0 17 5 14 10 -7 12 -3
13 -89 -11z"/>
<path d="M2858 1278 c3 -14 2 -19 -6 -14 -14 8 -15 -10 -2 -39 7 -15 9 -16 9
-4 1 9 4 31 7 48 4 19 2 31 -4 31 -5 0 -8 -10 -4 -22z"/>
<path d="M2915 1288 c-2 -7 -22 -94 -45 -193 -23 -99 -73 -305 -111 -459 -38
-153 -68 -283 -67 -288 5 -13 144 521 243 930 6 23 -12 32 -20 10z"/>
<path d="M2970 1290 c0 -6 7 -10 15 -10 8 0 15 2 15 4 0 2 -7 6 -15 10 -8 3
-15 1 -15 -4z"/>
<path d="M3979 1273 c-11 -21 -11 -27 -1 -30 6 -3 15 -23 19 -46 6 -38 7 -39
14 -17 21 76 -3 147 -32 93z"/>
<path d="M1685 1265 c-27 -8 -81 -25 -120 -38 l-70 -24 -3 -42 c-2 -23 7 -79
19 -124 12 -45 22 -87 22 -94 0 -6 6 -9 14 -6 7 3 13 0 13 -7 0 -6 4 -9 9 -6
18 12 39 -5 34 -27 -5 -18 -3 -20 8 -9 11 10 11 16 0 34 -12 19 -11 20 13 16
15 -3 29 -1 32 3 3 5 18 7 35 4 17 -3 29 -1 29 5 0 6 4 9 9 6 8 -6 21 39 21
74 0 16 -4 17 -36 8 -42 -11 -66 -17 -111 -25 -30 -5 -32 -3 -42 33 -24 86
-29 114 -23 115 4 0 14 2 22 4 8 2 61 14 118 26 l102 22 0 34 c0 38 -12 41
-95 18z"/>
<path d="M3508 1273 c7 -3 16 -2 19 1 4 3 -2 6 -13 5 -11 0 -14 -3 -6 -6z"/>
<path d="M3583 1273 c9 -2 23 -2 30 0 6 3 -1 5 -18 5 -16 0 -22 -2 -12 -5z"/>
<path d="M2824 1238 c4 -16 1 -28 -7 -31 -7 -3 -5 -6 6 -6 11 -1 17 -9 17 -23
0 -15 -3 -19 -8 -11 -5 8 -15 0 -31 -23 -21 -31 -22 -38 -11 -59 9 -17 10 -28
3 -37 -14 -17 -22 -97 -14 -128 5 -18 14 8 36 100 31 133 36 194 16 226 -11
17 -12 17 -7 -8z"/>
<path d="M2954 1217 c-10 -61 29 -79 57 -25 9 19 9 21 -2 11 -18 -18 -49 -16
-49 2 0 16 43 31 59 20 7 -3 11 3 11 15 0 17 -5 20 -34 18 -32 -2 -35 -5 -42
-41z"/>
<path d="M3750 1246 c0 -2 7 -20 15 -39 15 -36 35 -57 35 -37 0 6 5 8 12 4 7
-4 8 -3 4 4 -4 6 -13 9 -21 5 -21 -7 -19 14 3 26 15 9 14 10 -7 11 -16 0 -21
4 -17 15 3 9 0 15 -9 15 -8 0 -15 -2 -15 -4z"/>
<path d="M3713 1215 c-3 -9 -3 -31 0 -50 3 -20 1 -37 -5 -41 -7 -5 -9 -1 -5 9
3 9 2 19 -4 23 -16 9 -21 -1 -14 -29 6 -23 9 -24 26 -14 10 6 19 21 19 32 0
17 2 18 11 5 8 -12 9 -10 5 10 -3 14 -6 35 -6 48 0 25 -18 30 -27 7z"/>
<path d="M3487 1199 c-4 -13 -1 -14 19 -5 29 13 31 22 5 22 -11 0 -22 -8 -24
-17z"/>
<path d="M3547 1209 c7 -7 15 -10 18 -7 3 3 -2 9 -12 12 -14 6 -15 5 -6 -5z"/>
<path d="M3595 1175 c3 -64 15 -69 15 -7 0 29 -4 52 -8 52 -5 0 -8 -20 -7 -45z"/>
<path d="M3626 1213 c6 -4 14 -15 17 -23 5 -11 6 -9 4 4 -1 11 -9 21 -17 23
-10 3 -11 2 -4 -4z"/>
<path d="M3440 1190 c-9 -16 -8 -18 5 -14 8 4 15 12 15 20 0 20 -7 17 -20 -6z"/>
<path d="M3370 1178 c0 -12 3 -18 7 -14 11 10 12 36 2 36 -5 0 -9 -10 -9 -22z"/>
<path d="M2785 1168 l-20 -21 23 12 c12 6 22 16 22 21 0 13 -2 12 -25 -12z"/>
<path d="M3556 1175 c4 -8 10 -12 15 -9 11 6 2 24 -11 24 -5 0 -7 -7 -4 -15z"/>
<path d="M2960 1142 c-16 -6 -39 -32 -40 -46 0 -5 7 -3 15 4 8 7 24 10 35 7
15 -4 20 0 20 13 0 22 -10 29 -30 22z"/>
<path d="M3370 1126 c0 -15 4 -25 9 -22 10 7 9 31 -2 42 -4 4 -7 -5 -7 -20z"/>
<path d="M3958 1143 c7 -3 16 -2 19 1 4 3 -2 6 -13 5 -11 0 -14 -3 -6 -6z"/>
<path d="M3980 1111 c0 -5 5 -13 10 -16 6 -4 8 -11 5 -16 -4 -5 -1 -9 4 -9 14
0 7 43 -7 48 -7 2 -12 -1 -12 -7z"/>
<path d="M3805 1090 c-3 -6 1 -7 9 -4 18 7 21 14 7 14 -6 0 -13 -4 -16 -10z"/>
<path d="M3715 1064 c-16 -14 -22 -22 -12 -18 9 3 17 3 17 0 0 -4 -12 -11 -26
-17 -15 -5 -24 -12 -21 -15 3 -3 20 2 39 12 19 10 28 19 20 22 -10 3 -8 8 5
17 10 7 16 16 13 18 -3 3 -18 -6 -35 -19z"/>
<path d="M2965 1070 c-3 -5 -17 -10 -30 -10 -18 0 -23 -4 -18 -15 8 -21 32
-15 51 13 8 12 12 22 9 22 -3 0 -9 -4 -12 -10z"/>
<path d="M3467 1069 c7 -7 15 -10 18 -7 3 3 -2 9 -12 12 -14 6 -15 5 -6 -5z"/>
<path d="M3541 1076 c7 -8 118 -10 126 -3 3 4 -24 7 -62 7 -38 0 -66 -2 -64
-4z"/>
<path d="M3764 1065 c-10 -8 -14 -14 -9 -15 15 0 40 18 34 24 -3 3 -14 -1 -25
-9z"/>
<path d="M3548 1053 c12 -2 30 -2 40 0 9 3 -1 5 -23 4 -22 0 -30 -2 -17 -4z"/>
<path d="M3640 1043 c0 -5 4 -13 8 -20 6 -9 11 -7 20 7 11 17 10 20 -8 20 -11
0 -20 -3 -20 -7z"/>
<path d="M2913 995 c-3 -9 -3 -18 -1 -21 3 -3 8 4 11 16 6 23 -1 27 -10 5z"/>
<path d="M2877 920 c-3 -11 -1 -18 4 -14 15 9 10 -13 -6 -26 -8 -7 -15 -17
-15 -22 0 -6 7 -5 15 2 12 10 15 10 15 -1 0 -12 2 -12 9 0 5 8 7 21 4 29 -4 8
1 19 10 24 25 13 21 28 -7 28 -15 0 -26 -7 -29 -20z"/>
<path d="M1630 845 c0 -5 5 -17 10 -25 5 -8 10 -10 10 -5 0 6 -5 17 -10 25 -5
8 -10 11 -10 5z"/>
<path d="M2945 830 c-3 -5 -2 -18 4 -27 7 -14 9 -12 8 10 -2 30 -3 31 -12 17z"/>
<path d="M2863 810 c-26 -10 -31 -30 -8 -30 8 0 19 9 25 20 6 11 9 20 8 19 -2
0 -13 -4 -25 -9z"/>
<path d="M1660 764 c0 -14 7 -32 15 -40 8 -9 15 -19 15 -24 0 -5 -7 -15 -15
-24 -20 -19 -19 -23 5 -29 24 -6 26 13 8 90 -13 56 -28 70 -28 27z"/>
<path d="M2741 744 c0 -11 3 -14 6 -6 3 7 2 16 -1 19 -3 4 -6 -2 -5 -13z"/>
<path d="M2732 700 c0 -14 2 -19 5 -12 2 6 2 18 0 25 -3 6 -5 1 -5 -13z"/>
<path d="M2780 565 c-7 -9 -10 -18 -7 -21 3 -3 10 4 17 15 13 25 8 27 -10 6z"/>
<path d="M1713 480 c0 -25 2 -35 4 -22 2 12 2 32 0 45 -2 12 -4 2 -4 -23z"/>
<path d="M2746 474 c-4 -9 -4 -19 -1 -22 2 -3 7 3 11 12 4 9 4 19 1 22 -2 3
-7 -3 -11 -12z"/>
<path d="M2661 354 c0 -11 3 -14 6 -6 3 7 2 16 -1 19 -3 4 -6 -2 -5 -13z"/>
<path d="M2651 304 c0 -11 3 -14 6 -6 3 7 2 16 -1 19 -3 4 -6 -2 -5 -13z"/>
<path d="M2806 265 c-8 -22 -8 -22 9 -22 17 0 18 6 6 25 -7 11 -10 10 -15 -3z"/>
<path d="M2701 163 c-10 -26 -10 -27 4 -9 8 11 15 23 15 28 0 15 -7 8 -19 -19z"/>
<path d="M2054 106 c-30 -23 -12 -27 21 -6 18 12 24 20 14 20 -8 0 -24 -6 -35
-14z"/>
<path d="M2130 80 c0 -36 3 -37 31 -9 17 17 19 23 8 30 -26 16 -39 9 -39 -21z"/>
</g>
</svg>
